<?xml version="1.0" encoding="UTF-8" standalone="no"?>
<svg width="21px" height="10px" viewBox="0 0 21 10" version="1.1" xmlns="http://www.w3.org/2000/svg" xmlns:xlink="http://www.w3.org/1999/xlink">
    <!-- Generator: Sketch 39.1 (31720) - http://www.bohemiancoding.com/sketch -->
    <title>Page 1</title>
    <desc>Created with Sketch.</desc>
    <defs>
        <polygon id="path-1" points="10.4673898 9.75796667 20.9347727 9.75796667 20.9347727 -3.33333332e-05 10.4673898 -3.33333332e-05 6.85349642e-06 -3.33333332e-05 6.85349642e-06 9.75796667"></polygon>
    </defs>
    <g id="Design-R3" stroke="none" stroke-width="1" fill="none" fill-rule="evenodd">
        <g id="Artboard" transform="translate(-996.000000, -2431.000000)">
            <g id="Page-1" transform="translate(996.000000, 2431.000000)">
                <mask id="mask-2" fill="white">
                    <use xlink:href="#path-1"></use>
                </mask>
                <g id="Clip-2"></g>
                <path d="M6.36363633e-05,4.87996667 C-0.00693636364,5.2613 0.6342,5.5563 1.40547273,5.68563333 C1.40547273,5.68563333 8.60401818,6.93096667 8.60529091,6.93096667 C9.42747273,6.92763333 10.1421091,6.79363333 10.5401545,6.10496667 C10.6324273,6.12696667 10.7253364,6.1483 10.8182455,6.16896667 C11.5707455,6.33763333 11.9646545,6.56896667 12.4661091,7.1123 C13.0531545,7.74863333 13.3156545,8.2983 13.5068818,8.69963333 C13.7200636,9.1463 14.0121545,9.75796667 14.7226545,9.75796667 C15.4325182,9.75796667 20.9348364,5.79296667 20.9348364,4.87896667 C20.9348364,3.96496667 15.4325182,-3.33333332e-05 14.7226545,-3.33333332e-05 C14.0121545,-3.33333332e-05 13.7200636,0.611633333 13.5068818,1.0583 C13.3156545,1.45963333 13.0531545,2.0093 12.4661091,2.64563333 C11.9646545,3.18896667 11.5707455,3.4203 10.8182455,3.58896667 C10.7253364,3.60963333 10.6324273,3.63096667 10.5401545,3.65296667 C10.1421091,2.9643 9.42747273,2.8303 8.60529091,2.82696667 C8.60401818,2.82696667 1.40547273,4.0723 1.40547273,4.0723 C0.6342,4.20163333 -0.00693636364,4.49663333 6.36363633e-05,4.87796667" id="Fill-1" fill="#FEFEFE" mask="url(#mask-2)"></path>
            </g>
        </g>
    </g>
</svg>