<?xml version="1.0" encoding="UTF-8" standalone="no"?>
<svg width="136px" height="16px" viewBox="0 0 136 16" version="1.1" xmlns="http://www.w3.org/2000/svg" xmlns:xlink="http://www.w3.org/1999/xlink">
    <!-- Generator: Sketch 41.2 (35397) - http://www.bohemiancoding.com/sketch -->
    <title>Fill 1 Copy 7</title>
    <desc>Created with Sketch.</desc>
    <defs></defs>
    <g id="Design-R3" stroke="none" stroke-width="1" fill="none" fill-rule="evenodd">
        <g id="Mobile-Copy" transform="translate(-120.000000, -525.000000)" fill="#FFFFFF">
            <path d="M255.645998,532.827504 C255.548039,531.443983 254.195599,531.307647 253.607247,531.24837 C253.231437,531.211618 252.852066,531.202727 252.473288,531.195614 L252.116477,531.187908 C242.172071,530.924126 225.899461,530.624778 212.824498,530.385299 L199.931798,530.144635 C195.762866,530.063426 192.650712,528.843509 190.042013,526.212211 C189.539746,525.701245 188.851059,525 187.457061,525 C187.36207,525 187.261735,525.003557 187.126966,525.013634 C186.426999,525.08773 185.896235,525.652045 185.383875,526.198577 C185.253262,526.337285 185.120868,526.478957 184.984318,526.612922 C182.684934,528.869591 180.002022,530.003557 176.780629,530.080024 C172.820677,530.174867 166.310802,530.272081 159.654878,530.371666 C152.215869,530.483106 144.522758,530.598103 140.073008,530.714286 C134.340281,530.864849 128.608741,531.027267 122.738276,531.215175 L122.231854,531.20984 C120.796297,531.20984 120.046459,531.783047 120.001932,532.913456 C119.933657,534.672199 121.693372,534.742146 122.355936,534.768228 C122.487737,534.773563 122.617162,534.778305 122.737089,534.789567 C123.026219,534.815056 123.318317,534.82217 123.609822,534.82217 L124.526488,534.815056 L131.240595,534.826319 C144.813669,534.842916 163.402286,534.864849 174.101873,535.393005 C179.096042,535.639004 183.015622,536.510966 185.910483,539.965619 C186.485775,540.651452 187.109155,541 187.765783,541 C188.4046,540.998814 188.997702,540.672792 189.530247,540.029638 C192.447669,536.501482 196.305504,535.634855 201.58346,535.381743 C212.126905,534.872555 230.431142,534.846473 243.797017,534.82869 L251.95321,534.812685 C252.482787,534.812685 253.012957,534.806758 253.549658,534.747481 C254.155228,534.682276 255.764144,534.508002 255.645998,532.827504" id="Fill-1-Copy-7"></path>
        </g>
    </g>
</svg>