<?xml version="1.0" encoding="UTF-8" standalone="no"?>
<svg width="167px" height="264px" viewBox="0 0 167 264" version="1.1" xmlns="http://www.w3.org/2000/svg" xmlns:xlink="http://www.w3.org/1999/xlink">
    <!-- Generator: Sketch 41.2 (35397) - http://www.bohemiancoding.com/sketch -->
    <title>g20</title>
    <desc>Created with Sketch.</desc>
    <defs>
        <polygon id="path-1" points="0 479.999988 479.999988 479.999988 479.999988 0 0 0"></polygon>
    </defs>
    <g id="Page-1" stroke="none" stroke-width="1" fill="none" fill-rule="evenodd">
        <g id="A" transform="translate(-150.000000, -107.000000)">
            <g id="g10" transform="translate(240.000000, 240.000000) scale(1, -1) translate(-240.000000, -240.000000) ">
                <g id="g12">
                    <g id="g14-Clipped">
                        <mask id="mask-2" fill="white">
                            <use xlink:href="#path-1"></use>
                        </mask>
                        <g id="path16"></g>
                        <g id="g14" mask="url(#mask-2)">
                            <g transform="translate(150.333330, 108.999997)" id="g20">
                                <g transform="translate(0.312533, 0.613867)">
                                    <path d="M113.666664,140.33333 L82.0679979,140.33333 L82.0679979,152.28933 L113.095997,152.28933 L113.095997,220.039994 C113.095997,239.682661 102.849331,261.031993 74.9519981,261.031993 C62.7106651,261.031993 52.4626653,251.92266 52.4626653,242.529327 C52.4626653,234.274661 57.5866652,230.858661 63.2799984,230.858661 C69.5426649,230.858661 74.6666648,235.697327 74.6666648,241.390661 C74.6666648,244.806661 72.6746648,246.799994 72.6746648,246.799994 C72.6746648,246.799994 72.9586648,247.083994 73.8133315,247.083994 C76.3746647,247.083994 81.4999979,243.667994 81.4999979,234.558661 C81.4999979,221.463994 70.3973315,214.917328 61.5719984,214.917328 C53.0319986,214.917328 41.3613323,220.039994 41.3613323,234.558661 C41.3613323,249.645327 55.5946653,262.741327 76.3746647,262.741327 C121.351997,262.741327 117.366664,224.594661 148.395996,224.594661 L148.395996,223.457328 C142.415996,222.887994 134.731997,217.762661 134.731997,210.930661 L134.731997,152.28933 C150.674663,152.28933 150.674663,166.807996 150.674663,173.070662 L151.811996,173.070662 C152.666663,173.070662 153.521329,168.801329 153.521329,165.383996 C153.521329,151.719996 148.395996,140.33333 134.731997,140.33333 L134.731997,85.6773312 C134.731997,78.559998 138.715997,72.8679982 148.395996,72.8679982 C158.359996,72.8679982 163.483996,81.6906646 163.483996,90.7999977 C164.338663,90.7999977 165.475996,87.3866645 165.475996,85.6773312 C165.475996,65.1799983 141.56533,61.7666651 137.578663,48.3866654 C121.067997,48.3866654 113.666664,65.1799983 113.666664,80.2693313 L113.666664,140.33333 Z M30.5439992,72.8679982 C33.3893325,72.8679982 49.9013321,73.1519981 49.9013321,94.5013309 L49.9013321,177.339996 C49.9013321,188.726662 50.1853321,216.339995 89.1853311,216.339995 L89.1853311,215.201328 C78.0826647,214.347995 73.2439981,201.537328 73.2439981,191.858662 L73.2439981,59.4879985 C73.2439981,11.9479997 50.1853321,0.277333301 31.3973325,0.277333301 C14.0319996,0.277333301 0.0839999729,11.9479997 0.0839999729,25.8959993 C0.0839999729,39.8466656 11.4706664,48.9559988 23.1413327,48.9559988 C35.0986658,48.9559988 45.9159988,39.8466656 45.9159988,25.8959993 C45.9159988,11.9479997 35.6666658,10.5239997 34.5279991,10.5239997 C34.5279991,11.665333 36.5213324,12.8026663 36.5213324,17.6413329 C36.5213324,22.7666661 31.1119992,27.3213326 26.2733327,27.3213326 C21.4346661,27.3213326 16.0253329,23.3333327 16.0253329,17.0733329 C16.0253329,10.5239997 18.8719995,2.55599991 31.9666658,2.55599991 C44.7773322,2.55599991 65.5573317,10.5239997 65.5573317,38.4226657 C65.5573317,66.3213317 38.7986657,71.7293315 30.5439992,71.7293315 L30.5439992,72.8679982 Z" id="path22" fill="#FFFFFF"></path>
                                </g>
                            </g>
                        </g>
                    </g>
                </g>
            </g>
        </g>
    </g>
</svg>