<?xml version="1.0" encoding="UTF-8" standalone="no"?>
<svg width="969px" height="228px" viewBox="0 0 969 228" version="1.1" xmlns="http://www.w3.org/2000/svg" xmlns:xlink="http://www.w3.org/1999/xlink">
    <!-- Generator: Sketch 41.2 (35397) - http://www.bohemiancoding.com/sketch -->
    <title>g14</title>
    <desc>Created with Sketch.</desc>
    <defs>
        <polygon id="path-1" points="0 1122.51997 1587.39996 1122.51997 1587.39996 0 0 0"></polygon>
    </defs>
    <g id="Page-1" stroke="none" stroke-width="1" fill="none" fill-rule="evenodd">
        <g id="Logo-Potionomics-final-VG-(1)" transform="translate(-311.000000, -435.000000)">
            <g id="g10" transform="translate(794.000000, 562.020000) scale(1, -1) translate(-794.000000, -562.020000) translate(0.000000, 0.520000)">
                <g id="g12">
                    <g id="g14-Clipped">
                        <mask id="mask-2" fill="white">
                            <use xlink:href="#path-1"></use>
                        </mask>
                        <g id="path16"></g>
                        <g id="g14" mask="url(#mask-2)">
                            <g transform="translate(310.666659, 462.666655)">
                                <g id="g20" transform="translate(807.416646, 40.135866)">
                                    <path d="M63.9999984,71.9999982 C63.9999984,77.4373314 76.3239981,77.9813314 76.3239981,90.6679977 C76.3239981,108.067997 57.4559986,114.094664 40.8066656,114.094664 C23.6226661,114.094664 4.97999988,108.074664 4.97999988,91.3906644 L4.97999988,60.3026652 C4.97999988,60.3026652 4.97999988,60.3039985 4.97866654,60.3053318 C4.97866654,54.0359986 1.96799995,52.377332 0.765333314,52.3706654 L0.758666648,52.3706654 L0.758666648,52.3706654 L0.758666648,52.3706654 L0.758666648,49.8319988 L0.758666648,49.8319988 L0.758666648,49.8306654 L0.765333314,49.8306654 C1.96799995,49.8239988 4.97866654,48.1653321 4.97866654,41.895999 C4.97866654,41.8986656 4.97999988,41.9013323 4.97999988,41.903999 L4.97999988,31.7639992 C4.97999988,8.23599979 27.374666,0.951999976 38.0986657,0.951999976 C51.1093321,0.951999976 68.1679983,7.64799981 68.1679983,20.4559995 C68.1679983,35.7506658 51.0826654,38.4693324 51.0826654,46.2626655 C51.0826654,50.0693321 55.8079986,49.8333321 55.8079986,49.8333321 L55.8066653,52.369332 C51.1013321,52.369332 44.0159989,50.6133321 44.0159989,43.7253322 C44.0159989,35.0266658 50.5786654,34.6613325 50.5786654,19.4386662 C50.5786654,8.07466646 44.3826656,3.61066658 38.0986657,3.61066658 C29.9266659,3.61066658 24.3079994,9.47066643 24.3079994,24.9973327 C24.3079994,36.4946658 24.3066661,84.1559979 24.3066661,90.1986644 C24.3066661,103.405331 29.9266659,111.019997 40.367999,111.019997 C52.273332,111.019997 56.3879986,100.401331 56.3879986,89.0373311 C56.3879986,79.5373313 54.2679986,78.7053314 54.2679986,73.2693315 C54.2679986,66.3813317 64.0519984,65.2159984 68.7239983,65.2159984 L68.7253316,66.734665 L68.7253316,67.882665 C68.7253316,67.882665 63.9999984,67.158665 63.9999984,71.9999982" id="path22" fill="#FFFFFF"></path>
                                </g>
                                <g id="g24" transform="translate(0.199600, 11.216266)">
                                    <path d="M117.33333,216.333328 C97.4079976,216.333328 56.8599986,209.378661 50.8146654,175.715996 C50.8079987,175.718662 50.8013321,175.725329 50.7946654,175.726662 C50.0986654,170.850662 47.5319988,166.958662 46.3293322,166.951996 C46.3293322,166.951996 46.3226655,164.891996 46.3226655,164.413329 C48.0959988,164.413329 50.0119987,161.529329 51.497332,155.391996 C51.4999987,155.395996 51.5026654,155.403996 51.505332,155.406663 C56.0226653,137.96133 69.3773316,126.106663 69.3773316,101.414664 C69.3773316,78.3653313 55.1786653,69.3786649 41.4253323,69.2639982 L41.4253323,69.2679982 C23.5026661,69.2679982 14.4586663,83.1679979 14.4586663,96.7933309 C14.4586663,114.554664 27.1333327,125.882663 38.1106657,125.882663 L38.111999,125.891997 C41.567999,125.770663 43.5599989,124.394664 43.5599989,121.714664 C43.5599989,116.819997 37.1333324,117.695997 37.1333324,117.695997 C37.1333324,117.695997 32.9399992,102.542664 45.5853322,102.542664 C52.309332,102.542664 56.8746652,108.726664 56.8746652,115.187997 C56.8746652,125.26933 46.3693322,129.17333 38.6586657,129.20133 L38.6613324,129.20933 C23.1813328,129.20933 9.08799977,121.454664 4.83333321,107.650664 C3.67733324,104.451997 1.4093333,100.513331 0.310666659,100.507997 C0.310666659,100.507997 0.303999992,98.4479975 0.303999992,97.9693309 C1.44399996,97.9693309 3.13333326,95.7293309 4.65599988,90.4226644 C9.03199977,74.9813314 25.4493327,66.3999983 41.1573323,66.302665 L41.1573323,66.298665 C41.1986656,66.298665 41.2413323,66.2999983 41.283999,66.3013317 C41.3306656,66.2999983 41.3786656,66.2973317 41.4253323,66.2973317 L41.4253323,66.3039983 C59.1773319,66.4253316 78.6213314,78.6253313 78.6213314,112.170664 C78.6213314,131.019997 71.0079982,149.123996 71.0079982,170.033329 C71.0079982,195.890662 92.3879977,212.601328 117.334664,212.601328 C137.150663,212.601328 160.453329,201.798662 160.453329,173.551996 L160.453329,169.439996 C160.453329,169.441329 160.453329,169.442662 160.451996,169.443996 C160.451996,163.174663 157.439996,161.514663 156.238663,161.509329 L156.231996,161.509329 L156.231996,161.507996 L156.231996,161.507996 C156.230663,161.399996 156.230663,159.078663 156.230663,158.969329 L156.231996,158.969329 L156.231996,158.969329 L156.238663,158.969329 C157.439996,158.962663 160.451996,157.303996 160.451996,151.034663 C160.451996,151.035996 160.453329,151.039996 160.453329,151.04133 L160.453329,116.33333 C160.453329,98.1213309 150.850663,85.8346645 135.611997,85.8346645 C117.50133,85.8346645 109.914664,98.7546642 109.914664,114.522664 C109.914664,115.067997 109.903997,115.59733 109.886664,116.11733 L109.886664,116.278664 C110.913331,129.722663 117.598664,139.84933 131.459997,139.931996 C135.087997,139.88533 136.47733,137.81733 136.47733,135.68133 C136.47733,130.787997 129.974663,131.395997 129.974663,131.395997 C129.974663,131.395997 127.59733,119.78133 137.42133,119.78133 C142.315996,119.78133 146.58933,124.538664 146.58933,130.159997 C146.58933,139.58533 139.05333,143.014663 132.118663,143.014663 C121.166664,143.014663 113.93733,138.498663 109.886664,131.502663 L109.886664,181.497329 C109.886664,181.497329 108.663997,181.495995 107.049331,181.495995 C105.623997,168.370662 90.7013311,155.195996 90.7013311,155.195996 C90.7013311,155.195996 90.6999977,117.886664 90.6999977,84.6213312 L90.6999977,84.6213312 C90.6999977,78.351998 87.6879978,76.6933314 86.4866645,76.6866647 C86.4866645,76.6866647 86.4799978,74.6279981 86.4799978,74.1479981 C87.6493311,74.1479981 90.6999977,72.4813315 90.6999977,66.2119983 L90.6999977,66.214665 L90.6999977,34.1706658 C90.6999977,14.3306663 83.0959979,2.76399991 69.9933316,2.76399991 C59.8666652,2.76399991 51.973332,9.7586664 51.973332,22.1279994 C51.973332,31.9933325 58.0519985,41.0199989 67.7959983,41.0973323 C71.3906649,41.0306656 72.7706648,38.819999 72.7706648,36.6919991 C72.7706648,31.7986658 66.2679983,32.2333325 66.2679983,32.2333325 C66.2679983,32.2333325 63.8906651,20.6186661 73.7159982,20.6186661 C78.6093314,20.6186661 82.5799979,25.6253327 82.5799979,31.2466659 C82.5799979,40.671999 73.4986648,43.7119989 67.754665,43.7119989 C60.5626652,43.7119989 49.9493321,40.0306656 45.7773322,30.7679992 C44.1079989,27.4813326 42.7546656,24.8679994 40.7946656,24.8679994 C40.7946656,24.8679994 40.787999,22.8093327 40.787999,22.3293328 C42.5506656,22.3293328 43.0866656,20.0439995 45.1253322,15.2319996 C49.1466654,3.83066655 62.9746651,0.0959999726 69.9933316,0.0959999726 C88.6279978,0.0959999726 109.887997,12.0586663 109.887997,34.8959991 C109.887997,41.1066656 109.887997,66.730665 109.886664,94.8586643 C114.611997,87.5919978 122.734664,82.7946646 135.611997,82.7946646 C156.593329,82.7946646 179.846662,92.2199977 179.846662,123.099997 L179.846662,171.713329 C179.846662,211.115995 140.534663,216.333328 117.33333,216.333328" id="path26" fill="#FFFFFF"></path>
                                </g>
                                <g id="g28" transform="translate(384.324924, 41.080266)">
                                    <path d="M39.999999,2.6666666 C30.8573326,2.6666666 24.4959994,8.70799978 24.4959994,22.7239994 L24.4959994,66.7079983 L24.4986661,66.7053317 C24.4959994,66.830665 24.4986661,87.6026645 24.4986661,87.7293311 C24.4986661,100.961331 28.5773326,110.077331 40.0013323,110.077331 C52.1386654,110.077331 55.333332,102.281331 55.333332,87.7293311 L55.333332,58.9106652 C55.189332,53.0226653 52.305332,51.4319987 51.1333321,51.4266654 L51.1266654,51.4266654 L51.1266654,51.425332 L51.1253321,51.425332 L51.1253321,48.8866654 L51.1266654,48.8866654 L51.1266654,48.8866654 L51.1333321,48.8866654 C52.305332,48.8799988 55.189332,47.2906655 55.333332,41.4013323 L55.333332,22.7213328 C55.333332,9.67466642 49.1426654,2.6666666 39.999999,2.6666666 M39.999999,113.151997 C23.8093327,113.151997 5.1573332,107.545331 5.1573332,91.1026644 C5.1573332,91.1026644 5.15866654,75.2653315 5.15866654,58.8373319 C4.99333321,53.009332 2.12799995,51.4319987 0.961333309,51.4266654 L0.954666643,51.4266654 L0.954666643,51.425332 L0.954666643,51.425332 L0.954666643,48.8866654 L0.954666643,48.8866654 L0.954666643,48.8866654 L0.961333309,48.8866654 C2.12933328,48.8799988 4.99866654,47.2999988 5.15999987,41.4573323 L5.15999987,30.4546659 C5.15999987,11.1239997 20.3173328,0.0079999998 39.999999,0.0079999998 C59.6826652,0.0079999998 74.7853315,9.19066644 74.7853315,30.4573326 L74.7853315,91.1039977 C74.7853315,107.545331 56.1906653,113.151997 39.999999,113.151997" id="path30" fill="#FFFFFF"></path>
                                </g>
                                <g id="g32" transform="translate(552.720653, 41.080266)">
                                    <path d="M39.999999,2.6666666 C30.8573326,2.6666666 24.4973327,8.70799978 24.4973327,22.7239994 L24.4973327,66.7079983 L24.4986661,66.7053317 C24.4959994,66.830665 24.4986661,87.6026645 24.4986661,87.7293311 C24.4986661,100.961331 28.5773326,110.077331 40.0013323,110.077331 C52.1399987,110.077331 55.333332,102.281331 55.333332,87.7293311 L55.333332,58.9106652 C55.189332,53.0226653 52.305332,51.4319987 51.1333321,51.4266654 L51.1266654,51.4266654 L51.1266654,51.425332 L51.1253321,51.425332 L51.1253321,48.8866654 L51.1266654,48.8866654 L51.1266654,48.8866654 L51.1333321,48.8866654 C52.305332,48.8799988 55.189332,47.2906655 55.333332,41.4013323 L55.333332,22.7213328 C55.333332,9.67466642 49.1426654,2.6666666 39.999999,2.6666666 M39.999999,113.151997 C23.8093327,113.151997 5.15866654,107.545331 5.15866654,91.1026644 C5.15866654,91.1026644 5.15866654,75.5973314 5.15999987,59.3559985 C5.15866654,59.3586652 5.15866654,59.3599985 5.1573332,59.3613318 C5.1573332,53.0919987 2.14533328,51.433332 0.943999976,51.4266654 L0.93733331,51.4266654 L0.93733331,51.425332 L0.935999977,51.425332 L0.935999977,48.8866654 L0.93733331,48.8866654 L0.93733331,48.8866654 L0.943999976,48.8866654 C2.14533328,48.8799988 5.1573332,47.2213322 5.1573332,40.951999 C5.1573332,40.9546656 5.15999987,40.9613323 5.15999987,40.9653323 L5.15999987,30.4546659 C5.15999987,11.1239997 20.3173328,0.0079999998 39.999999,0.0079999998 C59.6826652,0.0079999998 74.7853315,9.19066644 74.7853315,30.4573326 L74.7853315,91.1039977 C74.7853315,107.545331 56.1906653,113.151997 39.999999,113.151997" id="path34" fill="#FFFFFF"></path>
                                </g>
                                <g id="g36" transform="translate(185.085729, 41.080266)">
                                    <path d="M39.999999,2.6666666 C30.8573326,2.6666666 24.4959994,8.70799978 24.4959994,22.7239994 L24.4959994,66.7079983 L24.4986661,66.7053317 C24.4959994,66.830665 24.4986661,87.6026645 24.4986661,87.7293311 C24.4986661,100.961331 28.5773326,110.077331 40.0013323,110.077331 C52.1399987,110.077331 55.3333319,102.281331 55.3333319,87.7293311 L55.3333319,59.3573318 C55.3333319,59.3586652 55.3319986,59.3599985 55.3319986,59.3613318 C55.3319986,53.0919987 52.3199987,51.433332 51.1186654,51.4266654 L51.1119987,51.4266654 L51.1119987,51.425332 L51.1106654,51.425332 L51.1106654,48.8866654 L51.1119987,48.8866654 L51.1119987,48.8866654 L51.1186654,48.8866654 C52.3199987,48.8799988 55.3319986,47.2213322 55.3319986,40.951999 C55.3319986,40.9533323 55.3333319,40.9586656 55.3333319,40.9613323 L55.3333319,22.7213328 C55.3333319,9.67466642 49.1426654,2.6666666 39.999999,2.6666666 M39.999999,113.151997 C23.8093327,113.151997 5.15866654,107.545331 5.15866654,91.1026644 C5.15866654,91.1026644 5.15866654,75.5919981 5.15999987,59.3466652 C5.15866654,59.3519985 5.1573332,59.3559985 5.15599987,59.3613318 C5.15599987,53.0919987 2.14399995,51.433332 0.942666643,51.4266654 L0.935999977,51.4266654 L0.935999977,51.425332 L0.934666643,51.425332 L0.934666643,48.8866654 L0.935999977,48.8866654 L0.935999977,48.8866654 L0.942666643,48.8866654 C2.14399995,48.8799988 5.15599987,47.2213322 5.15599987,40.951999 C5.15599987,40.959999 5.15999987,40.9746656 5.15999987,40.983999 L5.15999987,30.4546659 C5.15999987,11.1239997 20.3173328,0.0079999998 39.999999,0.0079999998 C59.6826652,0.0079999998 74.7853315,9.19066644 74.7853315,30.4573326 L74.7853315,91.1039977 C74.7853315,107.545331 56.1906653,113.151997 39.999999,113.151997" id="path38" fill="#FFFFFF"></path>
                                </g>
                                <g id="g40" transform="translate(349.335991, 40.811599)">
                                    <path d="M23.9999994,27.9999993 L23.9999994,100.510664 C24.0093327,106.766664 27.0253327,108.417331 28.2199993,108.417331 C28.2199993,108.645331 28.218666,110.955997 28.218666,110.955997 L23.9999994,110.955997 L23.9999994,110.957331 L4.40399989,110.957331 L4.40399989,110.955997 L0.182666662,110.955997 C0.182666662,110.955997 0.181333329,108.645331 0.181333329,108.417331 C1.37866663,108.417331 4.40266656,106.762664 4.40266656,100.481331 C4.40266656,100.486664 4.40399989,100.497331 4.40399989,100.502664 L4.40399989,59.6253318 C4.40266656,59.6266652 4.40266656,59.6279985 4.40266656,59.6293318 C4.40266656,53.3599987 1.39066663,51.701332 0.187999995,51.6946654 L0.182666662,51.6946654 L0.182666662,51.6946654 L0.181333329,51.6946654 L0.181333329,49.1559988 L0.181333329,49.1559988 L0.182666662,49.1546654 L0.187999995,49.1546654 C1.39066663,49.1493321 4.40266656,47.4893321 4.40266656,41.219999 C4.40266656,41.2226656 4.40399989,41.227999 4.40399989,41.2306656 L4.40399989,31.3826659 C4.40399989,6.37333317 20.0959995,0.275999993 35.7426658,0.275999993 L35.7426658,2.93599993 C27.7693326,2.93599993 23.9999994,14.165333 23.9999994,27.9999993" id="path42" fill="#FFFFFF"></path>
                                </g>
                                <g id="g44" transform="translate(352.701058, 164.284929)">
                                    <path d="M10.6666664,0 C16.3026663,0 20.8719995,5.92266652 20.8719995,13.2279997 C20.8719995,20.5346662 16.3026663,26.4573327 10.6666664,26.4573327 C5.03066654,26.4573327 0.461333322,20.5346662 0.461333322,13.2279997 C0.461333322,5.92266652 5.03066654,0 10.6666664,0" id="path46" fill="#FFFFFF"></path>
                                </g>
                                <g id="g48" transform="translate(638.248251, 40.811599)">
                                    <path d="M158.666663,27.9999993 L158.666663,100.513331 C158.677329,106.767997 161.691996,108.417331 162.886663,108.417331 C162.886663,108.645331 162.885329,110.955997 162.885329,110.955997 L158.666663,110.955997 L158.666663,110.957331 L139.070663,110.957331 L139.070663,110.955997 L134.847997,110.955997 L134.847997,108.417331 C136.04533,108.417331 139.06933,106.762664 139.06933,100.481331 C139.06933,100.486664 139.070663,100.495997 139.070663,100.501331 L139.070663,59.6253318 C139.06933,59.6266652 139.06933,59.6279985 139.06933,59.6293318 C139.06933,53.3599987 136.05733,51.701332 134.854663,51.6946654 L134.847997,51.6946654 L134.847997,51.6946654 L134.847997,51.6946654 L134.847997,49.1559988 L134.847997,49.1559988 L134.847997,49.1546654 L134.854663,49.1546654 C135.735997,49.1506654 137.58533,48.2493321 138.511997,45.3039989 C137.40533,29.7266659 129.743997,2.93599993 111.287997,2.93599993 C100.774664,2.93599993 100.230664,14.261333 100.230664,17.1319996 C100.230664,49.0306654 126.734663,55.5626653 126.734663,86.9786645 C126.734663,109.173331 107.722664,113.418664 90.8093311,113.418664 C81.431998,113.418664 72.9386648,111.139997 66.7439983,106.125331 C59.8373318,111.369331 49.1866654,113.419997 39.4066657,113.419997 C34.2293325,113.419997 28.8413326,112.713331 23.9039994,111.271997 L23.9039994,127.103997 C23.9039994,127.103997 22.6813328,127.102663 21.0666661,127.102663 C19.6413328,113.97733 4.71866655,100.802664 4.71866655,100.802664 L4.71866655,59.6279985 C4.71733322,59.6279985 4.71733322,59.6293318 4.71733322,59.6293318 C4.71733322,53.3599987 1.70533329,51.701332 0.503999987,51.6946654 L0.497333321,51.6946654 L0.497333321,51.6946654 L0.495999988,51.6946654 L0.495999988,49.1559988 L0.497333321,49.1559988 L0.497333321,49.1546654 L0.503999987,49.1546654 C1.70533329,49.1493321 4.71733322,47.4893321 4.71733322,41.219999 L4.71733322,41.223999 L4.71733322,13.0506663 L4.71733322,13.053333 C4.71733322,6.77199983 1.69333329,5.11733321 0.495999988,5.11733321 C0.495999988,4.88933321 0.497333321,2.5786666 0.497333321,2.5786666 L4.71733322,2.5786666 L7.52933315,2.5786666 L21.7519995,2.5786666 L23.9053327,2.5786666 L28.122666,2.5786666 C28.122666,2.5786666 28.1239993,4.88933321 28.1239993,5.11733321 C26.9319993,5.11733321 23.9266661,6.7626665 23.9053327,12.9879997 L23.9053327,88.0079978 C23.9066661,100.811997 27.986666,110.346664 39.407999,110.346664 C51.545332,110.346664 54.7399986,102.549331 54.7399986,87.9986645 L54.7399986,59.6239985 C54.7386653,59.6253318 54.7386653,59.6279985 54.737332,59.6293318 C54.737332,53.3599987 51.725332,51.701332 50.5239987,51.6946654 L50.5173321,51.6946654 L50.5173321,51.6946654 L50.5159987,51.6946654 L50.5159987,49.1559988 L50.5173321,49.1559988 L50.5173321,49.1546654 L50.5239987,49.1546654 C51.725332,49.1493321 54.737332,47.4893321 54.737332,41.219999 C54.737332,41.223999 54.7399986,41.231999 54.7399986,41.235999 L54.7399986,32.5599992 C54.7399986,32.5519992 54.7386653,32.5466659 54.7386653,32.5386659 L54.7386653,13.0239997 C54.7386653,13.0319997 54.737332,13.045333 54.737332,13.053333 C54.737332,6.77199983 51.713332,5.11733321 50.5159987,5.11733321 C50.5159987,4.88933321 50.5173321,2.5786666 50.5173321,2.5786666 L54.7386653,2.5786666 L54.7386653,2.57733327 L74.1919981,2.57733327 L74.1919981,2.5786666 L78.4106647,2.5786666 L78.4106647,5.11733321 C77.2186647,5.11733321 74.2146648,6.7626665 74.1919981,12.9866663 L74.1919981,30.7239992 L74.1919981,30.7253326 L74.1919981,85.2066645 C74.1933315,97.2479976 77.2773314,110.343997 90.8106644,110.343997 C104.554664,110.343997 106.271997,95.9746643 106.271997,87.2733312 C106.271997,58.2746652 90.7799977,46.8973322 90.7799977,24.4226661 C90.7799977,9.19866644 98.8559975,0.277333326 111.287997,0.277333326 C126.199997,0.277333326 135.11733,13.085333 139.482663,24.7573327 C142.05333,5.27199987 156.249329,0.275999993 170.409329,0.275999993 L170.409329,2.93599993 C162.435996,2.93599993 158.666663,14.165333 158.666663,27.9999993" id="path50" fill="#FFFFFF"></path>
                                </g>
                                <g id="g52" transform="translate(776.279714, 164.284929)">
                                    <path d="M10.6666664,0 C16.3026663,0 20.8719995,5.92266652 20.8719995,13.2279997 C20.8719995,20.5346662 16.3026663,26.4573327 10.6666664,26.4573327 C5.03066654,26.4573327 0.461333322,20.5346662 0.461333322,13.2279997 C0.461333322,5.92266652 5.03066654,0 10.6666664,0" id="path54" fill="#FFFFFF"></path>
                                </g>
                                <g id="g56" transform="translate(470.155455, 0.580400)">
                                    <path d="M85.3333312,31.9999992 C85.3439979,31.9826659 85.3519979,31.9479992 85.3599979,31.9159992 C82.3306646,37.6306657 76.0453314,41.0546656 68.9653316,41.0546656 C61.8066651,41.0546656 53.0159987,37.1133324 53.0159987,27.6879993 C53.0159987,22.0666661 56.5653319,17.6946662 61.4586651,17.6946662 C71.7706649,17.6946662 69.3279983,29.4826659 69.3279983,29.4826659 C69.3279983,29.4826659 62.8253318,28.2159993 62.8253318,33.1093325 C62.8253318,35.2306658 64.4626651,38.283999 68.9866649,38.3946657 C69.0346649,38.3933324 69.0719983,38.391999 69.1239983,38.391999 C75.9359981,38.391999 81.2813313,32.6026659 81.2813313,24.0679994 C81.2813313,11.441333 71.1773316,3.07999992 61.1133318,3.07999992 C48.4266655,3.07999992 42.0746656,12.721333 42.0746656,25.2839994 C42.0746656,54.6159986 76.0959981,80.9506646 76.0959981,125.32933 C76.0959981,153.24133 49.7199988,153.650663 40.5373323,153.650663 C34.5599991,153.650663 28.6253326,153.038663 23.4133327,150.871996 L23.4133327,167.334662 C23.4133327,167.334662 22.1906661,167.333329 20.5759995,167.333329 C19.1506662,154.207996 4.22666656,141.034663 4.22666656,141.034663 L4.22666656,99.8599975 L4.22666656,99.8613308 C4.22666656,93.5919977 1.21466664,91.9319977 0.013333333,91.9266644 L0.0066666665,91.9266644 L0.0066666665,91.925331 L0.0053333332,91.925331 L0.0053333332,89.3866644 L0.0066666665,89.3866644 L0.0066666665,89.3866644 L0.013333333,89.3866644 C1.21466664,89.3799978 4.22666656,87.7213311 4.22666656,81.451998 L4.22666656,81.451998 L4.22533323,53.2226653 C4.20533323,46.9946655 1.19999997,45.3493322 0.0066666665,45.3493322 C0.0066666665,45.1199989 0.0079999998,42.8093323 0.0079999998,42.8093323 L4.22533323,42.8093323 L6.95599983,42.8093323 L19.8439995,42.8093323 L23.4133327,42.8093323 L27.6359993,42.8093323 L27.6359993,45.3493322 C26.4399993,45.3493322 23.4159994,47.0026655 23.4159994,53.2839987 C23.4159994,53.2799987 23.4133327,53.2706653 23.4133327,53.2666653 L23.4133327,126.91333 L23.4159994,126.91333 C23.4159994,138.41333 26.598666,150.575996 40.535999,150.575996 C51.1693321,150.575996 55.3066653,140.68933 55.3066653,128.122663 C55.3066653,76.4079981 32.7039992,57.5346652 32.7039992,30.4679992 C32.7039992,15.0026663 44.3039989,0.0906666644 61.0399985,0.0906666644 C69.4786649,0.0906666644 78.855998,5.92399985 83.7946646,13.4559997 C86.9986645,17.6173329 90.3639977,21.5733328 91.929331,21.5733328 C91.929331,22.0533328 91.9226644,24.1119994 91.9226644,24.1119994 C89.9199978,24.1119994 86.6799978,29.8466659 85.3333312,31.9999992" id="path58" fill="#FFFFFF"></path>
                                </g>
                                <g id="g60" transform="translate(878.975711, 10.077600)">
                                    <path d="M89.6666644,47.9999988 C88.4679978,48.0066655 86.3319978,50.7173321 85.4439978,55.8439986 C79.7693313,95.7986643 22.4653327,107.058664 22.4653327,136.00133 C22.4653327,144.699996 27.6093326,148.699996 32.9613325,148.699996 C37.8026657,148.699996 39.0786657,146.16933 39.0786657,144.00933 C39.0786657,139.114663 32.5759992,138.83733 32.5759992,138.83733 C32.5759992,138.83733 30.1986659,127.222663 40.0226656,127.222663 C44.9159989,127.222663 48.8879988,132.55733 48.8879988,138.179997 C48.8879988,147.603996 40.383999,151.630663 33.7333325,151.630663 C25.8559993,151.630663 15.7159996,146.987996 15.7159996,131.842663 C15.7159996,116.80533 26.7253326,105.003997 38.6546657,92.741331 C38.6466657,92.741331 38.6386657,92.7439977 38.6293323,92.7439977 C42.6119989,88.3826645 42.4519989,85.8519979 41.4546656,85.1813312 L41.4493323,85.1773312 L41.4493323,85.1773312 L41.4493323,85.1773312 C41.5093323,85.0866645 42.7919989,83.1519979 42.8519989,83.0613313 L42.8533322,83.0613313 L42.8533322,83.0613313 L42.8586656,83.0653313 C43.8386655,83.7079979 47.7146654,83.2146646 51.361332,79.2146647 C60.6679985,68.4439983 68.1453316,56.4613319 68.1453316,41.191999 C68.1453316,21.1266661 59.7893318,3.49866658 41.4226656,3.49866658 C23.4999994,3.49866658 14.4559996,17.3986662 14.4559996,31.0239992 C14.4559996,48.7853321 27.130666,60.1133318 38.107999,60.1133318 L38.1093324,60.1226652 C41.5653323,60.0013318 43.5586656,58.6253319 43.5586656,55.9453319 C43.5586656,51.0506654 37.0026657,51.9266654 37.0026657,51.9266654 C37.0026657,51.9266654 33.5453325,36.7733324 46.1906655,36.7733324 C52.9146653,36.7733324 56.8719986,42.9573323 56.8719986,49.4186654 C56.8719986,59.4999985 46.3666655,63.0786651 38.655999,63.1039984 L38.6586657,63.1119984 C22.9786661,63.1119984 8.71333309,55.3946653 4.66266653,41.3266656 C3.28399989,36.6813324 1.4866666,33.7586658 0.307999967,33.7519992 C0.307999967,33.7519992 0.301333301,31.6933325 0.301333301,31.2133326 C1.42133327,31.2133326 3.02133323,29.3599993 4.81333319,24.0813327 C9.45199974,8.90399978 25.8279993,0.502666654 41.4226656,0.502666654 C59.1706652,0.502666654 78.9773313,13.3706663 84.4319979,36.4853324 C84.4346645,36.4813324 84.4373312,36.4733324 84.4413312,36.4693324 C85.6839978,42.6119989 87.9013311,45.4613322 89.6733311,45.4613322 C89.6733311,45.9399989 89.6666644,47.9999988 89.6666644,47.9999988" id="path62" fill="#FFFFFF"></path>
                                </g>
                                <g id="g64" transform="translate(270.944393, 40.808666)">
                                    <path d="M65.666665,103.999997 C65.6693317,103.995997 65.670665,103.983997 65.6733317,103.978664 C62.3279984,110.109331 55.5826653,113.42133 48.5239988,113.42133 C40.439999,113.42133 32.5306658,108.217331 32.5306658,98.7933309 C32.5306658,93.1706643 36.0799991,89.3386644 40.9733323,89.3386644 C51.285332,89.3386644 48.8426654,101.125331 48.8426654,101.125331 C48.8426654,101.125331 42.3399989,99.8599975 42.3399989,104.753331 C42.3399989,106.905331 44.1586655,110.319997 49.3813321,110.345331 C55.9413319,110.363997 60.9706651,103.586664 60.9706651,95.069331 C60.9706651,82.4439979 51.949332,74.7386648 42.6453322,74.7386648 C30.8706659,74.7386648 24.562666,82.6786646 23.714666,96.7213309 L23.714666,110.765331 L23.7133327,110.765331 L23.7133327,139.579997 C23.7133327,139.579997 22.4906661,139.578663 20.8759995,139.578663 C19.4506662,126.45333 4.52799986,113.278664 4.52799986,113.278664 C4.52799986,113.278664 4.52799986,83.5346646 4.5293332,59.6213318 C4.52799986,59.6253318 4.52666653,59.6293318 4.5253332,59.6333318 C4.5253332,53.3639987 1.51333327,51.7039987 0.311999967,51.697332 L0.305333301,51.697332 L0.305333301,51.697332 L0.303999967,51.697332 L0.303999967,49.1586654 L0.305333301,49.1586654 L0.305333301,49.1586654 L0.311999967,49.1586654 C1.51333327,49.1519988 4.5253332,47.4933321 4.5253332,41.223999 C4.5253332,41.2306656 4.5293332,41.243999 4.5293332,41.251999 L4.5293332,30.8053326 C4.5293332,5.83199985 21.9013328,0.295999993 37.5306657,0.279999993 L37.5306657,0.27866666 C37.539999,0.27866666 37.5493324,0.279999993 37.5586657,0.279999993 C37.571999,0.279999993 37.5853324,0.27866666 37.5986657,0.27866666 L37.5986657,0.279999993 C50.5999987,0.302666659 67.6013316,6.99733316 67.6013316,19.7839995 C67.6013316,35.0786658 50.5146654,37.7973324 50.5146654,45.5906655 C50.5146654,49.3959988 55.2399986,49.1599988 55.2399986,49.1599988 L55.2386653,51.6959987 C50.533332,51.6959987 43.4479989,49.9399988 43.4479989,43.0533323 C43.4479989,34.3533325 50.0106654,33.9893325 50.0106654,18.7666662 C50.0106654,7.41599981 43.8306655,2.95066659 37.555999,2.93999993 C29.6039992,2.96266659 23.714666,9.26399977 23.714666,23.0746661 L23.714666,77.9439981 C28.0679993,74.2653315 34.2186658,72.0519982 42.5719989,72.0519982 C50.2333321,72.0519982 57.8786652,76.1453314 62.7279984,81.9973313 C62.7213317,81.987998 62.7146651,81.9693313 62.7066651,81.959998 C62.7373317,81.9999979 62.7693317,82.0413313 62.7999984,82.0813313 C63.1093317,82.4573313 63.3999984,82.8399979 63.6839984,83.2293313 C67.3319983,87.8946645 71.4946649,92.333331 73.1519981,92.333331 C73.1519981,92.813331 73.1453315,94.873331 73.1453315,94.873331 C71.1426649,94.873331 67.0133316,101.846664 65.666665,103.999997" id="path66" fill="#FFFFFF"></path>
                                </g>
                            </g>
                        </g>
                    </g>
                </g>
            </g>
        </g>
    </g>
</svg>