<?xml version="1.0" encoding="UTF-8" standalone="no"?>
<svg width="803px" height="381px" viewBox="0 0 803 381" version="1.1" xmlns="http://www.w3.org/2000/svg" xmlns:xlink="http://www.w3.org/1999/xlink">
    <!-- Generator: Sketch 41.2 (35397) - http://www.bohemiancoding.com/sketch -->
    <title>g14</title>
    <desc>Created with Sketch.</desc>
    <defs>
        <polygon id="path-1" points="0 793.701313 1122.51997 793.701313 1122.51997 0 0 0"></polygon>
    </defs>
    <g id="Page-1" stroke="none" stroke-width="1" fill="none" fill-rule="evenodd">
        <g id="Logo-Voracious-Games-black-cmyk-(1)" transform="translate(-161.000000, -218.000000)">
            <g id="g10" transform="translate(561.500000, 397.701330) scale(1, -1) translate(-561.500000, -397.701330) translate(0.000000, 0.701330)">
                <g id="g12">
                    <g id="g14-Clipped">
                        <mask id="mask-2" fill="white">
                            <use xlink:href="#path-1"></use>
                        </mask>
                        <g id="path16"></g>
                        <g id="g14" mask="url(#mask-2)">
                            <g transform="translate(159.999996, 196.999995)">
                                <g id="g20" transform="translate(578.328119, 1.117067)">
                                    <path d="M90.6666644,87.9999978 C90.6666644,87.9999978 83.7333312,91.1826644 83.7333312,104.202664 L83.7333312,131.422663 C83.7333312,155.415996 70.8546649,159.029329 46.7519988,165.431996 C22.1653328,171.963996 7.21199982,173.534662 7.21199982,145.22933 L7.21199982,128.203997 C7.21199982,108.773331 34.4386658,95.1306643 45.0053322,86.7653312 C55.5706653,78.4013314 60.4999985,71.1293316 60.4999985,61.8839985 L60.4999985,21.5093328 C60.4999985,14.025333 57.6599986,6.17599985 46.7519988,8.42399979 C34.8626658,10.8746664 30.6639992,16.3853329 30.6639992,30.4733326 L30.6639992,64.2813317 C30.6639992,88.4266645 15.6399996,103.099997 0.285333326,103.099997 C0.285333326,103.099997 7.21199982,99.6333308 7.21199982,87.1559978 L7.21199982,47.3253322 C7.21199982,11.985333 26.278666,7.57333314 46.7519988,2.52399994 C65.4133317,-2.07733328 83.7319979,1.69733329 83.7319979,21.0693328 L83.7319979,55.4106653 C83.7319979,72.5359982 63.1426651,81.5266646 52.1359987,90.3319977 C41.1293323,99.1359975 30.6626659,104.578664 30.6626659,119.987997 L30.6626659,143.20533 C30.6626659,159.934663 36.6786657,162.591996 46.7506655,159.775996 C54.361332,157.647996 60.4999985,154.493329 60.4999985,137.762663 L60.4999985,120.61733 C60.4999985,102.777331 71.3506649,87.9999978 90.6666644,87.9999978" id="path22" fill="#FFFFFF"></path>
                                </g>
                                <g id="g24" transform="translate(483.209721, 209.861328)">
                                    <path d="M6.9999998,153.33333 L6.9999998,16.6133329 C6.9999998,7.36799982 0.71733329,5.08666654 0.71733329,5.08666654 C22.7253327,3.18133325 36.8186657,0.698666649 36.8186657,0.698666649 C36.8186657,0.698666649 30.2466659,3.9759999 30.2466659,13.5519997 L30.2466659,151.083996 C30.2466659,160.081329 36.9506657,161.738663 36.9506657,161.738663 C36.9506657,161.738663 20.5719995,165.369329 0.309333301,166.309329 C0.309333301,166.309329 6.9999998,162.247996 6.9999998,153.33333" id="path26" fill="#FFFFFF"></path>
                                </g>
                                <g id="g28" transform="translate(0.333733, 113.448264)">
                                    <path d="M82.6666646,233.333328 L66.790665,73.4919982 C66.790665,73.4919982 31.8786659,209.934661 30.7319992,214.227995 C28.7826659,221.525328 34.6333325,225.202661 34.6333325,225.202661 C14.785333,216.823995 0.749333315,209.501328 0.749333315,209.501328 C0.749333315,209.501328 7.57333314,211.373328 11.1559997,196.986662 C12.3959997,192.009329 57.8493319,23.6546661 59.8306652,15.069333 C61.8119985,6.48399984 57.1893319,0.809333313 57.1893319,0.809333313 C57.1893319,0.809333313 77.5933314,8.21599979 91.2773311,12.9466663 C91.2773311,12.9466663 83.5373312,15.3159996 84.5279979,27.862666 C84.7879979,31.1546659 105.869331,234.815994 106.885331,241.674661 C108.205331,250.59066 114.78933,255.09866 114.78933,255.09866 C88.3373311,246.501327 76.3719981,241.422661 76.3719981,241.422661 C76.3719981,241.422661 83.6359979,242.247994 82.6666646,233.333328" id="path30" fill="#FFFFFF"></path>
                                </g>
                                <g id="g32" transform="translate(387.359457, 215.366395)">
                                    <path d="M6.9999998,153.333329 L6.9999998,33.5026658 C6.9999998,10.0546664 14.8999996,1.09999997 44.5453322,0.483999988 C71.9239982,-0.0853333312 83.0293312,4.88666654 83.0293312,27.7799993 L83.0293312,68.7106649 C83.0293312,88.0813311 90.3013311,89.4039978 90.3013311,89.4039978 C71.3146649,89.4039978 59.7639985,82.4733313 59.7639985,54.7239986 L59.7639985,23.7999994 C59.7639985,10.7453331 57.1639985,6.14533318 44.5439989,6.52399984 C32.5506658,6.88533316 30.2466659,13.673333 30.2466659,24.2399994 L30.2466659,142.986663 C30.2466659,153.642663 34.3813324,159.551996 45.1439988,159.405329 C58.0933319,159.227996 59.7653318,153.038663 59.7653318,141.64133 L59.7653318,135.330663 C59.7653318,115.586664 70.1586649,103.351997 90.2999977,103.351997 C90.2999977,103.351997 83.0293312,105.786664 83.0293312,119.555997 L83.0293312,140.419996 C83.0293312,158.854663 67.6919983,164.137329 44.8373322,164.945329 C3.12266656,164.945329 0.261333302,164.559996 0.261333302,164.559996 C0.261333302,164.559996 6.9999998,162.358663 6.9999998,153.333329" id="path34" fill="#FFFFFF"></path>
                                </g>
                                <g id="g36" transform="translate(157.814263, 0.351600)">
                                    <path d="M93.333331,110.999997 C93.333331,110.999997 86.8733312,113.694664 86.8733312,127.202663 L86.8733312,152.798663 C86.8733312,169.267996 76.3893314,177.442662 47.8933321,171.677329 C24.878666,166.545329 0.94533331,157.559996 0.94533331,157.559996 C0.94533331,157.559996 7.9119998,157.642663 7.9119998,148.810663 L7.9119998,30.3106659 C7.9119998,4.33466653 14.625333,-5.27466656 46.6199988,3.14266656 C73.1039982,10.1093331 86.8733312,15.3319996 86.8733312,38.2253324 L86.8733312,41.8359989 C86.8733312,41.8519989 86.8746645,87.7959978 86.8746645,94.5186643 C86.8746645,100.681331 92.7186643,102.359997 92.7186643,103.322664 C92.7186643,103.322664 76.5159981,100.927997 54.1426653,96.1039976 C36.6613324,92.333331 37.0826657,85.4079978 37.0826657,85.4079978 C37.0826657,85.4079978 63.6706651,101.107997 63.6706651,63.1226651 L63.6706651,34.8439991 C63.6706651,17.2306662 57.6159986,11.1719997 46.6199988,9.18399975 C35.2386658,7.12533313 31.1599992,10.2373331 31.1599992,25.5759993 C31.1599992,33.3773325 31.2453326,136.170663 31.1586659,143.33733 C30.9933326,157.107996 36.0053324,163.397329 47.8933321,165.818662 C59.0599985,168.093329 63.6733317,164.686663 63.6733317,149.166663 L63.6733317,135.654663 C63.6733317,116.886664 76.2733314,110.999997 93.333331,110.999997" id="path38" fill="#FFFFFF"></path>
                                </g>
                                <g id="g40" transform="translate(116.128397, 175.871196)">
                                    <path d="M53.333332,39.999999 C53.333332,18.7599995 51.2839987,13.7306663 38.1173324,9.51199976 C27.0693327,5.97199985 23.7639994,8.93333311 23.7639994,33.3666658 L23.7639994,143.28133 C23.7639994,155.609329 28.162666,162.913329 38.1186657,165.917329 C48.1946655,168.957329 53.333332,167.481329 53.333332,151.85333 L53.333332,39.999999 Z M76.8173314,54.7466653 L76.8173314,153.283996 C76.8173314,178.047996 55.7266653,176.462662 38.1186657,171.805329 C15.4093329,165.797329 0.303999992,158.981329 0.303999992,136.19733 L0.303999992,26.8333327 C0.303999992,-0.0759999981 16.3053329,-4.07466656 38.1186657,3.55066658 C62.8199984,12.1839997 76.8173314,10.9413331 76.8173314,54.7466653 L76.8173314,54.7466653 Z" id="path42" fill="#FFFFFF"></path>
                                </g>
                                <g id="g44" transform="translate(617.727718, 177.007996)">
                                    <path d="M60.3333318,150.666663 C60.3333318,148.207996 60.0879985,53.2666653 60.0879985,33.1239992 C60.0879985,16.4413329 56.9533319,7.9199998 44.2159989,10.7893331 C33.7093325,13.157333 30.4293325,21.9666661 30.4293325,37.0359991 C30.4293325,45.6826655 30.6746659,152.271996 30.6746659,157.663996 C30.6746659,166.414663 36.9639991,168.809329 36.9639991,168.809329 C36.9639991,168.809329 19.4639995,173.597329 0.311999967,177.394662 C0.311999967,177.394662 7.39333312,173.825329 7.39333312,163.454663 C7.39333312,161.171996 7.29333313,80.8226646 7.29333313,52.757332 C7.29333313,16.5159996 16.7679996,11.3279997 45.5919988,4.46533322 C68.0959983,-0.894666644 83.4119979,-7.39466648 83.4119979,37.4666657 C83.4119979,70.4853316 83.6546646,142.663996 83.6546646,143.691996 C83.6546646,152.93733 90.4559977,155.163996 90.4559977,155.163996 C90.4559977,155.163996 74.8093314,160.270663 54.4639986,165.486663 C54.4639986,165.486663 60.3333318,161.067996 60.3333318,150.666663" id="path46" fill="#FFFFFF"></path>
                                </g>
                                <g id="g48" transform="translate(293.929726, 209.431061)">
                                    <path d="M30.6666659,17.3333329 C30.6759992,20.6346662 30.6599992,133.60933 30.6599992,140.471996 C30.6599992,156.101329 33.9519992,161.525329 45.8199989,162.589329 C57.8279986,163.665329 60.5973318,160.503996 60.5973318,142.23333 C60.5973318,140.511996 60.5733318,117.758664 60.5466652,92.1786644 C40.951999,92.1786644 34.0359991,80.4133313 34.0359991,80.4133313 C34.0359991,80.4133313 60.5479985,96.3986643 60.5479985,55.6306653 L60.5479985,19.1973329 C60.5479985,10.2826664 54.397332,6.42933317 54.397332,6.42933317 C54.397332,6.42933317 68.3093316,8.0959998 91.0493311,8.30133313 C91.0493311,8.30133313 83.7733312,10.7773331 83.7733312,19.8586662 L83.7733312,143.663996 C83.7733312,170.079996 68.8706649,170.385329 45.8213322,168.649329 C26.5693327,167.198662 7.46666648,166.777329 7.46666648,143.334663 C7.46666648,139.19733 7.34799982,26.494666 7.34799982,13.617333 C7.34799982,4.86799988 0.741333315,0.390666657 0.741333315,0.390666657 C0.741333315,0.390666657 12.3386664,3.26799992 37.7773324,4.97466654 C37.7773324,4.97466654 30.6359992,7.01999982 30.6666659,17.3333329" id="path50" fill="#FFFFFF"></path>
                                </g>
                                <g id="g52" transform="translate(254.067860, 17.271333)">
                                    <path d="M83.9999979,25.3333327 L83.9999979,146.439996 C83.9999979,174.602662 67.390665,173.654662 45.7586655,170.599996 C23.6466661,167.478662 7.40533315,166.203996 7.40533315,142.86933 C7.40533315,138.63733 7.28666648,27.266666 7.28666648,14.3879996 C7.28666648,6.02399985 0.863999978,0.635999984 0.863999978,0.635999984 C16.8226662,3.74399991 36.0839991,6.06533318 37.1839991,6.06533318 C37.1839991,6.06533318 30.5706659,9.20266644 30.5706659,17.7879996 C30.5706659,21.0893328 30.5626659,136.22933 30.5626659,143.327996 C30.5626659,160.057329 33.5519992,162.605329 45.7586655,164.137329 C56.8253319,165.526663 60.6066652,162.699996 60.6066652,144.64933 L60.6066652,93.8266643 C41.435999,93.8266643 34.2079991,82.0613313 34.2079991,82.0613313 C34.2079991,82.0613313 60.5746652,98.1159975 60.6066652,57.8439986 L60.6066652,20.3453328 C60.6066652,11.869333 53.793332,7.71866647 53.793332,7.71866647 C53.793332,7.71866647 70.4306649,10.0639997 90.2426644,11.3839997 C90.2426644,11.3839997 83.9999979,14.169333 83.9999979,25.3333327" id="path54" fill="#FFFFFF"></path>
                                </g>
                                <g id="g56" transform="translate(712.803716, 116.883864)">
                                    <path d="M51.9999987,131.999997 C40.9933323,140.80533 31.2613326,146.482663 31.2613326,161.890663 L31.2613326,229.374661 C31.2613326,235.221327 36.5706658,240.930661 47.1519988,237.879994 C54.3506653,235.805327 60.3653318,231.938661 60.3653318,220.491994 L60.3653318,162.054663 C60.3653318,143.627996 71.7653315,128.03733 90.7506644,128.03733 C90.7506644,128.03733 83.6546646,131.458663 83.6546646,143.843996 L83.6546646,207.742661 C83.6546646,227.834661 75.9199981,234.790661 47.1519988,243.181327 C16.1186663,252.231994 7.97466647,244.706661 7.97466647,227.975994 L7.97466647,168.541329 C7.97466647,149.97733 34.3026658,136.066663 44.8693322,127.702663 C55.4359986,119.33733 60.3639985,110.867997 60.3639985,101.622664 L60.3639985,21.8973328 C60.3639985,11.5586664 55.2639986,6.31866651 44.2519989,9.71066642 C34.4173325,12.7399997 31.2626659,19.9239995 31.2626659,30.2626659 L31.2626659,96.8959976 C31.2626659,124.035997 14.8066663,136.778663 0.442666656,136.778663 C0.442666656,136.778663 7.97466647,133.807997 7.97466647,120.48133 L7.97466647,49.6719988 C7.97466647,18.9626662 18.8093329,11.6639997 42.9319989,3.97733323 C61.2439985,-1.85866662 83.6559979,-2.50799994 83.6559979,20.7253328 L83.6559979,98.0999975 C83.6559979,115.263997 63.0066651,123.194664 51.9999987,131.999997" id="path58" fill="#FFFFFF"></path>
                                </g>
                                <g id="g60" transform="translate(530.998120, 198.302662)">
                                    <path d="M23.9999994,138.999997 C23.9999994,154.398663 29.9906659,161.454663 40.9533323,159.331996 C51.0346654,157.381329 53.5039987,152.246663 53.5039987,132.082663 L53.5039987,34.4653324 C53.5039987,14.7399996 50.9839987,6.43599981 38.3626657,8.64799976 C25.9239994,10.8279997 23.9999994,18.3279995 23.9999994,35.1906658 L23.9999994,138.999997 Z M37.8746657,2.75866657 C61.0013318,-1.44933332 76.9639981,-5.81866655 76.9639981,37.9866657 L76.9639981,132.059997 C76.9639981,159.458663 58.4799985,162.514663 39.9466657,165.541329 C22.2786661,168.427996 0.515999987,168.178662 0.515999987,143.414663 L0.515999987,43.8439989 C0.515999987,13.905333 10.4919997,7.74266645 37.8746657,2.75866657 L37.8746657,2.75866657 Z" id="path62" fill="#FFFFFF"></path>
                                </g>
                                <g id="g64" transform="translate(484.288388, 19.704800)">
                                    <path d="M59.9999985,52.333332 C59.9999985,42.6506656 59.9986652,37.7186657 59.9986652,25.3919993 C59.9986652,12.5079997 57.4013319,5.78933316 44.7146655,7.21866646 C32.8279992,8.55733309 29.9973326,15.7466662 29.9973326,27.5773326 L29.9973326,146.119996 C29.9973326,156.382663 34.4893325,160.287996 46.8133322,157.959996 C58.9599985,155.665329 61.4639985,144.950663 61.4639985,132.214663 L61.4639985,117.94133 C61.4639985,82.0733313 35.0026658,95.6559976 35.0026658,95.6559976 C35.0026658,95.6559976 34.5626658,88.6466644 52.0626654,84.9613312 C66.870665,81.8413313 84.7039979,83.9653312 84.7039979,112.311997 C84.7039979,116.74533 84.7053312,127.467997 84.7053312,132.075997 C84.7053312,156.661329 70.2426649,160.455996 46.8106655,164.198663 C28.8333326,167.069329 1.3693333,170.106662 0.353333324,170.106662 C0.353333324,170.106662 6.7506665,166.457329 6.7506665,157.542663 L6.7506665,39.6213323 C6.7506665,13.6466663 14.2906663,5.5106665 44.7146655,1.17733328 C71.8253315,-2.68533329 83.2426646,5.57999984 83.2426646,28.4733326 L83.2426646,65.4133317 C83.2426646,84.7853312 89.5159978,85.7426645 89.5159978,85.7426645 C76.4639981,85.7426645 59.9999985,82.1946646 59.9999985,52.333332" id="path66" fill="#FFFFFF"></path>
                                </g>
                                <g id="g68" transform="translate(346.934125, 21.946399)">
                                    <path d="M125.666663,25.3333327 C125.666663,28.3519993 125.667997,157.899996 125.667997,162.213329 C125.667997,166.386663 131.846663,168.497329 131.846663,168.497329 C131.846663,168.497329 113.030664,170.779996 102.129331,171.149329 L102.129331,171.149329 L78.9213313,88.6613311 L78.9213313,160.194663 C78.9213313,169.110662 86.1973312,171.722662 86.0333312,171.887996 C76.1653314,172.394662 68.6146649,172.871996 55.6746652,172.493329 L30.5293325,87.3613311 L30.5293325,160.957329 C30.5293325,169.707996 36.6693324,172.265329 36.6693324,172.265329 C19.5093328,171.934662 0.265333302,170.445329 0.265333302,170.445329 C0.265333302,170.445329 7.28266646,168.093329 7.28266646,159.342663 L7.28266646,18.8493329 C7.28266646,10.1533331 0.831999954,7.05199982 0.831999954,7.05199982 C0.831999954,7.05199982 18.8386662,8.66933312 37.8133324,9.01999977 C37.8133324,9.01999977 37.251999,9.2453331 36.4506657,9.74266642 C20.2933328,24.6919994 46.0586655,116.359997 55.6746652,148.30533 L55.6746652,20.9279995 C55.6746652,12.0119997 49.5466654,9.35066643 49.5466654,9.35066643 C58.6919985,9.87999975 76.1199981,9.90666642 86.8506645,8.61866645 C86.8506645,8.61866645 86.1893312,8.91999978 85.2586645,9.54399976 C85.4079978,9.53466643 85.5519978,9.51866643 85.7026645,9.51599976 C68.1066649,22.3946661 92.8626643,114.16933 102.119997,146.426663 C102.101331,108.922664 102.067997,40.6026657 102.067997,33.7853325 C102.067997,8.69066645 110.205331,0.765333314 137.322663,0.765333314 C137.322663,0.765333314 125.666663,3.40666658 125.666663,25.3333327" id="path70" fill="#FFFFFF"></path>
                                </g>
                                <g id="g72" transform="translate(202.182662, 194.107862)">
                                    <path d="M45.3333322,166.666663 C56.1919986,168.431996 61.0919985,164.802663 61.0919985,149.61333 L61.0919985,125.986664 C61.0693318,95.6079976 41.655999,84.7733312 30.5226659,80.0306647 L30.5226659,144.990663 C30.5226659,158.858663 31.7866659,164.465329 45.3333322,166.666663 M61.0933318,51.633332 L61.0933318,28.8226659 C61.0933318,9.43866643 70.8013316,4.1679999 90.7226644,4.1679999 C90.7226644,4.1679999 84.4426646,7.67733314 84.4426646,20.3706662 C84.4426646,27.854666 84.4413312,56.0839986 84.4413312,57.2626652 C84.4413312,79.9946647 72.7733315,87.9426645 60.5146652,88.5946645 C73.0013315,97.7773309 83.8919979,110.185331 83.8919979,125.54133 L83.8906646,152.634663 C83.8906646,175.086662 69.6986649,176.518662 46.8666655,172.665329 C30.0333326,169.825329 12.9666663,165.731996 0.535999987,162.933329 C0.535999987,162.933329 7.27599982,160.995996 7.27599982,152.16533 L7.27599982,13.289333 C7.27599982,5.11599987 1.2453333,0.51733332 1.2453333,0.51733332 C1.2453333,0.51733332 22.8186661,6.21199984 37.1813324,7.9159998 C37.1813324,7.9159998 30.5226659,10.9719997 30.5226659,19.1453329 L30.5226659,71.9639982 C31.0866659,72.2573315 40.271999,78.4693314 46.9679988,78.4693314 C53.665332,78.4693314 61.0933318,77.2399981 61.0933318,51.633332" id="path74" fill="#FFFFFF"></path>
                                </g>
                            </g>
                        </g>
                    </g>
                </g>
            </g>
        </g>
    </g>
</svg>