<?xml version="1.0" encoding="UTF-8" standalone="no"?>
<svg width="169px" height="79px" viewBox="0 0 169 79" version="1.1" xmlns="http://www.w3.org/2000/svg" xmlns:xlink="http://www.w3.org/1999/xlink">
    <!-- Generator: Sketch 41.2 (35397) - http://www.bohemiancoding.com/sketch -->
    <title>Group 9 Copy</title>
    <desc>Created with Sketch.</desc>
    <defs></defs>
    <g id="Design-R3" stroke="none" stroke-width="1" fill="none" fill-rule="evenodd">
        <g id="iPad-Portrait" transform="translate(-302.000000, -3299.000000)" fill="#FEFEFE">
            <g id="Group-9-Copy" transform="translate(303.000000, 3300.000000)">
                <g id="Group-2-Copy" transform="translate(55.000000, 0.000000)">
                    <path d="M50.7666604,70.478006 L12.6829139,70.478006 C8.31712394,65.7078985 5.92560076,59.5708119 5.92560076,53.0677075 C5.92560076,42.3533015 12.6822138,32.6251881 22.7390728,28.8616299 C23.8956291,28.4292537 24.6615326,27.3256119 24.6615326,26.0941433 L24.6615326,19.8040836 L39.0008704,19.8040836 L39.0008704,26.0941433 C39.0008704,27.3256119 39.7667739,28.4292537 40.9226301,28.8616299 C50.9794891,32.6251881 57.7361022,42.3533015 57.7361022,53.0677075 C57.7361022,59.2432119 55.2094607,65.524191 50.7666604,70.478006 M26.0043141,5.91216716 L37.6580889,5.91216716 C38.3994891,5.91216716 39.0008704,6.51218507 39.0008704,7.25190448 L39.0008704,12.5521791 C39.0008704,13.2918985 38.3994891,13.8919164 37.6580889,13.8919164 L26.0043141,13.8919164 C25.2629139,13.8919164 24.6615326,13.2918985 24.6615326,12.5521791 L24.6615326,7.25190448 C24.6615326,6.51218507 25.2629139,5.91216716 26.0043141,5.91216716 M44.9264711,24.1180657 L44.9264711,19.8040836 L47.2731883,19.8040836 C48.9093094,19.8040836 50.2359886,18.4811104 50.2359886,16.848 C50.2359886,15.2148896 48.9093094,13.8919164 47.2731883,13.8919164 L44.9264711,13.8919164 L44.9264711,2.95608358 C44.9264711,1.32297313 43.600492,0 41.9636708,0 L21.6987323,0 C20.0619111,0 18.7352318,1.32297313 18.7352318,2.95608358 L18.7352318,13.8919164 L16.634948,13.8919164 C14.9981268,13.8919164 13.6721476,15.2148896 13.6721476,16.848 C13.6721476,18.4811104 14.9981268,19.8040836 16.634948,19.8040836 L18.7352318,19.8040836 L18.7352318,24.1180657 C7.44900662,29.2157731 0,40.5972537 0,53.0677075 C0,61.5517791 3.31144749,69.5259403 9.32315989,75.5247224 C9.87833491,76.0786388 10.6316367,76.3901731 11.417843,76.3901731 L52.0534342,76.3901731 C52.8529423,76.3901731 53.6174456,76.0681612 54.175421,75.4974806 C60.2046358,69.3240716 63.662403,61.1494388 63.662403,53.0677075 C63.662403,40.5972537 56.2133964,29.2157731 44.9264711,24.1180657" id="Fill-77" stroke="#100219" stroke-width="2"></path>
                    <path d="M20.3929858,65.3041612 L43.1054551,65.3041612 C45.0762214,65.3041612 46.8859659,64.2570985 47.915105,62.5799821 C48.8798354,61.0097373 49.5806301,59.2697552 50.046193,57.420806 C50.8415005,54.2663463 48.3120587,51.2369194 45.0524182,51.2369194 L18.5272337,51.2369194 C15.3039981,51.2369194 12.7997597,54.1978925 13.5110558,57.334191 C13.9556159,59.292806 14.6613113,61.119403 15.6981514,62.7608955 C16.7076878,64.3597791 18.4985298,65.3041612 20.3929858,65.3041612" id="Fill-79"></path>
                </g>
                <path d="M9.69210974,58.348394 C10.9102744,58.9896239 12.1956481,59.8397075 13.3935099,60.9992299 C14.4429518,62.0071761 15.2151561,63.2400418 15.7997351,64.527391 C16.3857143,63.2393433 17.1572185,62.0057791 18.2052602,60.9957373 C19.4024219,59.8376119 20.6884957,58.9889254 21.9066604,58.348394 C20.6884957,57.7099582 19.403122,56.8640657 18.2066604,55.7115284 C17.1579186,54.699391 16.3857143,53.4630328 15.7997351,52.172191 C15.2130558,53.4644299 14.4387512,54.7014866 13.3858089,55.7136239 C12.1914475,56.8661612 10.907474,57.7106567 9.69210974,58.348394 M15.7969347,76.6779284 C12.9482498,76.6779284 12.3384674,73.8294149 11.8491012,71.541803 C11.4220435,69.5454687 10.7765563,66.5286149 9.35676443,65.1637313 C7.6464333,63.5075701 5.52864711,62.7797254 3.98283822,62.2481612 C2.39712394,61.7019284 0,60.8776896 0,58.3456 C0,55.8114149 2.40062441,54.9885731 3.98843898,54.4423403 C5.53494797,53.9121731 7.65133396,53.1850269 9.35256386,51.5449313 C10.7751561,50.1765552 11.4206433,47.1499224 11.8491012,45.146603 C12.3377673,42.8541015 12.9461495,40 15.7969347,40 C18.6463198,40 19.2582025,42.8568955 19.7510691,45.152191 C20.1802271,47.1555104 20.8285147,50.1814448 22.2427058,51.5449313 C23.9439357,53.1850269 26.0659224,53.9114746 27.6138316,54.4423403 C29.2051466,54.9871761 31.6085714,55.8107164 31.6085714,58.3456 C31.6085714,60.8783881 29.2086471,61.7026269 27.6208325,62.2481612 C26.0715232,62.7797254 23.9495364,63.5089672 22.244106,65.1581433 C20.8285147,66.5237254 20.1802271,69.5398806 19.7510691,71.5348179 C19.2575024,73.8266209 18.6449196,76.6779284 15.7969347,76.6779284" id="Fill-111" stroke="#100219" stroke-width="2"></path>
                <path d="M144.69211,18.348394 C145.910274,18.9896239 147.195648,19.8397075 148.39351,20.9992299 C149.442952,22.0071761 150.215156,23.2400418 150.799735,24.527391 C151.385714,23.2393433 152.157219,22.0057791 153.20526,20.9957373 C154.402422,19.8376119 155.688496,18.9889254 156.90666,18.348394 C155.688496,17.7099582 154.403122,16.8640657 153.20666,15.7115284 C152.157919,14.699391 151.385714,13.4630328 150.799735,12.172191 C150.213056,13.4644299 149.438751,14.7014866 148.385809,15.7136239 C147.191447,16.8661612 145.907474,17.7106567 144.69211,18.348394 M150.796935,36.6779284 C147.94825,36.6779284 147.338467,33.8294149 146.849101,31.541803 C146.422044,29.5454687 145.776556,26.5286149 144.356764,25.1637313 C142.646433,23.5075701 140.528647,22.7797254 138.982838,22.2481612 C137.397124,21.7019284 135,20.8776896 135,18.3456 C135,15.8114149 137.400624,14.9885731 138.988439,14.4423403 C140.534948,13.9121731 142.651334,13.1850269 144.352564,11.5449313 C145.775156,10.1765552 146.420643,7.14992239 146.849101,5.14660299 C147.337767,2.85410149 147.946149,0 150.796935,0 C153.64632,0 154.258202,2.85689552 154.751069,5.15219104 C155.180227,7.15551045 155.828515,10.1814448 157.242706,11.5449313 C158.943936,13.1850269 161.065922,13.9114746 162.613832,14.4423403 C164.205147,14.9871761 166.608571,15.8107164 166.608571,18.3456 C166.608571,20.8783881 164.208647,21.7026269 162.620833,22.2481612 C161.071523,22.7797254 158.949536,23.5089672 157.244106,25.1581433 C155.828515,26.5237254 155.180227,29.5398806 154.751069,31.5348179 C154.257502,33.8266209 153.64492,36.6779284 150.796935,36.6779284" id="Fill-111-Copy" stroke="#100219" stroke-width="2"></path>
            </g>
        </g>
    </g>
</svg>