<?xml version="1.0" encoding="UTF-8" standalone="no"?>
<svg width="120px" height="67px" viewBox="0 0 120 67" version="1.1" xmlns="http://www.w3.org/2000/svg" xmlns:xlink="http://www.w3.org/1999/xlink">
    <!-- Generator: Sketch 41.2 (35397) - http://www.bohemiancoding.com/sketch -->
    <title>Group 6</title>
    <desc>Created with Sketch.</desc>
    <defs></defs>
    <g id="Design-R3" stroke="none" stroke-width="1" fill="none" fill-rule="evenodd">
        <g id="Mobile-Copy" transform="translate(-128.000000, -3415.000000)" fill="#FEFEFE">
            <g id="Group-6" transform="translate(128.000000, 3415.000000)">
                <path d="M60.2377183,20.8561345 C70.8783711,20.8561345 83.2047382,32.5259965 83.2047382,32.5259965 C83.4285698,32.7379509 83.4285698,33.0848365 83.2047382,33.296791 C83.2047382,33.296791 70.9090712,44.9610308 60.2377183,44.9610308 C49.6009728,44.9610308 37.2729312,33.2939799 37.2729312,33.2939799 C37.0496578,33.0820255 37.0496578,32.7357021 37.2729312,32.5237477 C37.2729312,32.5237477 49.6009728,20.8561345 60.2377183,20.8561345 M60.2377183,49.7196044 C75.8462046,49.7196044 88.1184279,35.0537076 88.6330731,34.4290886 C89.359828,33.5481003 89.359828,32.2696272 88.6330731,31.388639 C88.1184279,30.7640199 75.8462046,16.097561 60.2377183,16.097561 C44.629232,16.097561 32.3570087,30.7640199 31.8423635,31.388639 C31.1156086,32.2696272 31.1156086,33.5481003 31.8423635,34.4290886 C32.3570087,35.0537076 44.629232,49.7196044 60.2377183,49.7196044" id="Fill-35" stroke="#100219" stroke-width="1.6"></path>
                <path d="M60.8203035,29.7097931 C62.6243527,29.7097931 64.0918172,31.1878519 64.0918172,33.0049254 C64.0918172,34.8208744 62.6243527,36.2989332 60.8203035,36.2989332 C59.0162543,36.2989332 57.5487898,34.8208744 57.5487898,33.0049254 C57.5487898,31.1878519 59.0162543,29.7097931 60.8203035,29.7097931 M60.8203035,41.0575068 C65.2288371,41.0575068 68.8162827,37.4452862 68.8162827,33.0049254 C68.8162827,28.5640023 65.2288371,24.9512195 60.8203035,24.9512195 C56.4117699,24.9512195 52.8243243,28.5640023 52.8243243,33.0049254 C52.8243243,37.4452862 56.4117699,41.0575068 60.8203035,41.0575068" id="Fill-37" stroke="#100219" stroke-width="1.6"></path>
                <path d="M26.6979963,23.3936061 C27.4902752,23.3936061 28.266606,22.9990969 28.7273922,22.2757341 C29.447335,21.1440398 29.1249555,19.63569 28.005171,18.9065679 L4.88612017,3.85186633 C3.76690522,3.12447199 2.2751882,3.44987009 1.5541062,4.5821403 C0.833593771,5.71325866 1.15654282,7.22160844 2.27632735,7.95073056 L25.3953782,23.0054321 C25.7986373,23.2680543 26.2508799,23.3936061 26.6979963,23.3936061" id="Fill-43" stroke="#100219" stroke-width="1.6" transform="translate(15.140623, 13.428869) rotate(1.000000) translate(-15.140623, -13.428869) "></path>
                <path d="M36.7352618,15.3549111 C37.0263146,15.3549111 37.3224937,15.3007741 37.6095595,15.1873167 C38.8500939,14.6989316 39.4635262,13.2861855 38.9805266,12.031819 L35.2811367,2.43286298 C34.7987067,1.17849649 33.4009695,0.555920657 32.1604351,1.04660948 C30.9199006,1.53557052 30.3064683,2.94774069 30.789468,4.20210717 L34.4888578,13.8016391 C34.8596512,14.7651631 35.7698321,15.3549111 36.7352618,15.3549111" id="Fill-45" stroke="#100219" stroke-width="1.6" transform="translate(34.884997, 8.116875) rotate(1.000000) translate(-34.884997, -8.116875) "></path>
                <path d="M82.4731198,14.9043496 C83.5427817,14.9043496 84.5196029,14.1792589 84.8038209,13.0844239 L87.3874132,3.11860309 C87.7251712,1.81643476 86.9545362,0.48431828 85.666727,0.142218329 C84.380057,-0.192970512 83.0614908,0.581073821 82.7237328,1.88266623 L80.1395709,11.8479111 C79.8018129,13.1500794 80.5724479,14.4821959 81.8602571,14.8242959 C82.0653041,14.8784329 82.2709207,14.9043496 82.4731198,14.9043496" id="Fill-47" transform="translate(83.763492, 7.484233) rotate(1.000000) translate(-83.763492, -7.484233) "></path>
                <path d="M91.0330721,22.3743064 C91.5092368,22.9629026 92.2012705,23.2675674 92.9001391,23.2675674 C93.4366788,23.2675674 93.9772055,23.0867267 94.425461,22.7164064 L115.400062,5.35339403 C116.430423,4.50044786 116.58193,2.96502956 115.738389,1.92317971 C114.895418,0.882481709 113.376931,0.729285434 112.346001,1.58165568 L91.3713997,18.9440921 C90.3410384,19.7970383 90.1895315,21.3324566 91.0330721,22.3743064" id="Fill-49" stroke="#100219" stroke-width="1.6" transform="translate(103.385731, 12.148998) rotate(1.000000) translate(-103.385731, -12.148998) "></path>
                <path d="M97.4019195,30.4978514 C96.0725313,30.5738736 95.0558399,31.7251494 95.1310238,33.0687844 C95.2033598,34.3657694 96.2667564,35.3690322 97.5352,35.3690322 C97.5813356,35.3690322 97.6269016,35.3673044 97.6736068,35.3650007 L107.845647,34.7833156 C109.174466,34.7072934 110.191727,33.5560176 110.116543,32.2123826 C110.04079,30.8681717 108.893665,29.8395682 107.57396,29.9161663 L97.4019195,30.4978514 Z" id="Fill-51" stroke="#100219" stroke-width="1.6" transform="translate(102.623782, 32.640592) rotate(1.000000) translate(-102.623782, -32.640592) "></path>
                <path d="M116.264746,62.726965 C117.057024,62.726965 117.833355,62.3324558 118.294141,61.6090929 C119.014084,60.4773986 118.691705,58.9690488 117.57192,58.2399267 L93.3917512,42.4958419 C92.2736754,41.7672957 90.77968,42.0938457 90.0597372,43.22554 C89.3397943,44.3572343 89.6621738,45.865584 90.7819583,46.5947062 L114.962127,62.3387909 C115.365387,62.6014131 115.817629,62.726965 116.264746,62.726965" id="Fill-53" stroke="#100219" stroke-width="1.6" transform="translate(104.176939, 52.417268) rotate(1.000000) translate(-104.176939, -52.417268) "></path>
                <path d="M86.3081603,52.3348926 C85.8245911,51.0799502 84.4262844,50.4591022 83.1874587,50.9486391 C81.9469243,51.4364483 81.333492,52.8497703 81.8164916,54.1041368 L85.5147423,63.7030929 C85.8861052,64.6671927 86.7962862,65.2569408 87.7611463,65.2569408 C88.0527687,65.2569408 88.3483781,65.2028038 88.635444,65.0893464 C89.8759784,64.6015372 90.4899803,63.1882152 90.0064111,61.9338487 L86.3081603,52.3348926 Z" id="Fill-55" stroke="#100219" stroke-width="1.6" transform="translate(85.911568, 58.019105) rotate(1.000000) translate(-85.911568, -58.019105) "></path>
                <path d="M35.6829555,52.5898699 L33.0987935,62.5545389 C32.7616051,63.8567072 33.5322402,65.1888237 34.8200493,65.5309236 C35.0245268,65.5850606 35.2301433,65.6109773 35.4329121,65.6109773 C36.5020044,65.6109773 37.4793952,64.8858867 37.7630435,63.7910516 L40.3472055,53.8258068 C40.6843939,52.5242144 39.9137589,51.1920979 38.6265193,50.8499979 C37.3404189,50.5136572 36.0212831,51.2877016 35.6829555,52.5898699" id="Fill-57" stroke="#100219" stroke-width="1.6" transform="translate(36.723001, 58.191206) rotate(1.000000) translate(-36.723001, -58.191206) "></path>
                <path d="M31.8807864,42.1869154 C31.0389545,41.1456415 29.5204674,40.9930211 28.4883974,41.8448154 L5.27878418,61.0588534 C4.24842293,61.9117996 4.09748555,63.4472179 4.94102618,64.4890677 C5.41719091,65.077664 6.10922458,65.3823287 6.80752358,65.3823287 C7.34406327,65.3823287 7.88515956,65.201488 8.33284554,64.8311677 L31.5424588,45.6171297 C32.57282,44.7641835 32.724327,43.2287652 31.8807864,42.1869154" id="Fill-59" stroke="#100219" stroke-width="1.6" transform="translate(18.410791, 53.338103) rotate(1.000000) translate(-18.410791, -53.338103) "></path>
                <path d="M12.0911006,32.1066893 C10.7617125,32.1827115 9.74502106,33.3334114 9.82020496,34.6776223 C9.89254099,35.9746073 10.9559376,36.9778701 12.2243812,36.9778701 C12.2705168,36.9778701 12.3160828,36.9761423 12.3627879,36.9738386 L22.5353981,36.3927294 C23.8647863,36.3167072 24.8814777,35.1660074 24.8062938,33.8223724 C24.7311099,32.4781615 23.5862641,31.4472542 22.2637108,31.5261561 L12.0911006,32.1066893 Z" id="Fill-61" stroke="#100219" stroke-width="1.6" transform="translate(17.313249, 34.249891) rotate(1.000000) translate(-17.313249, -34.249891) "></path>
            </g>
        </g>
    </g>
</svg>