<?xml version="1.0" encoding="UTF-8" standalone="no"?>
<svg width="61px" height="27px" viewBox="0 0 61 27" version="1.1" xmlns="http://www.w3.org/2000/svg" xmlns:xlink="http://www.w3.org/1999/xlink">
    <!-- Generator: Sketch 41.2 (35397) - http://www.bohemiancoding.com/sketch -->
    <title>Soundcloud_icon</title>
    <desc>Created with Sketch.</desc>
    <defs>
        <polygon id="path-1" points="0 0.494357143 0 7.54521429 1.43851613 7.54521429 1.43851613 0.494357143 3.49742636e-20 0.494357143"></polygon>
        <polygon id="path-3" points="14.7076774 26.3571429 29.0219355 26.3571429 29.0219355 0.396642857 14.7076774 0.396642857 0.393419355 0.396642857 0.393419355 26.3571429 14.7076774 26.3571429"></polygon>
    </defs>
    <g id="Design-R3" stroke="none" stroke-width="1" fill="none" fill-rule="evenodd">
        <g id="Desktop" transform="translate(-1034.000000, -8411.000000)">
            <g id="Group-2" transform="translate(819.000000, 8405.000000)">
                <g id="Soundcloud_icon" transform="translate(215.400342, 6.000000)">
                    <g id="Group-3" transform="translate(0.000000, 15.674657)">
                        <mask id="mask-2" fill="white">
                            <use xlink:href="#path-1"></use>
                        </mask>
                        <g id="Clip-2"></g>
                        <path d="M0.67916129,0.494357143 C0.554,0.494357143 0.454645161,0.590785714 0.438516129,0.728357143 L-0.000193548387,4.04871429 L0.438516129,7.31185714 C0.454645161,7.45007143 0.554,7.54521429 0.67916129,7.54521429 C0.800451613,7.54521429 0.89916129,7.45007143 0.918516129,7.31314286 L0.918516129,7.3125 L0.918516129,7.31314286 L1.43851613,4.04871429 L0.918516129,0.727714286 C0.899806452,0.590785714 0.799806452,0.494357143 0.67916129,0.494357143" id="Fill-1" fill="#FFFFFF" mask="url(#mask-2)"></path>
                    </g>
                    <path d="M3.14645161,14.3550643 C3.12580645,14.21235 3.02322581,14.1139929 2.89677419,14.1139929 C2.76967742,14.1139929 2.66451613,14.2155643 2.64709677,14.3550643 C2.64709677,14.35635 2.05741935,19.7235643 2.05741935,19.7235643 L2.64709677,24.9731357 C2.66387097,25.1132786 2.76903226,25.2154929 2.89677419,25.2154929 C3.02258065,25.2154929 3.12516129,25.11585 3.14580645,24.9744214 L3.81677419,19.7235643 L3.14645161,14.3550643 Z" id="Fill-4" fill="#FFFFFF"></path>
                    <path d="M12.4389032,9.40300714 C12.1969677,9.40300714 11.9969677,9.60036429 11.986,9.85107857 L11.5156774,19.7285786 L11.986,26.1108643 C11.9976129,26.3602929 12.1969677,26.55765 12.4389032,26.55765 C12.6795484,26.55765 12.8795484,26.35965 12.8930968,26.1095786 L12.8930968,26.1115071 L13.4240645,19.7285786 L12.8930968,9.85107857 C12.8795484,9.60036429 12.6795484,9.40300714 12.4389032,9.40300714" id="Fill-6" fill="#FFFFFF"></path>
                    <path d="M7.62980645,12.8358 C7.444,12.8358 7.2923871,12.9836571 7.27690323,13.1810143 L6.74851613,19.7259429 L7.27690323,26.0568 C7.29174194,26.2528714 7.444,26.4007286 7.62980645,26.4007286 C7.81303226,26.4007286 7.96529032,26.2528714 7.98141935,26.0568 L8.58270968,19.7259429 L7.98141935,13.1797286 C7.96529032,12.9836571 7.81303226,12.8358 7.62980645,12.8358" id="Fill-8" fill="#FFFFFF"></path>
                    <path d="M17.3267097,26.5561714 C17.6267097,26.5561714 17.8712258,26.3151 17.8828387,26.0071714 L18.3434839,19.7309571 L17.8834839,6.58131429 C17.871871,6.27274286 17.628,6.03167143 17.3273548,6.03167143 C17.0247742,6.03167143 16.7802581,6.27338571 16.7712258,6.5826 C16.7712258,6.58324286 16.3621935,19.7309571 16.3621935,19.7309571 L16.7712258,26.0084571 C16.7802581,26.3151 17.0247742,26.5561714 17.3267097,26.5561714" id="Fill-10" fill="#FFFFFF"></path>
                    <path d="M27.3336774,26.5862571 C27.7465806,26.5862571 28.0872258,26.2474714 28.0949677,25.8302571 L28.0949677,25.8354 L28.0949677,25.8302571 L28.4162581,19.7353286 L28.0949677,4.54847143 C28.087871,4.1319 27.7465806,3.79247143 27.3336774,3.79247143 C26.9194839,3.79247143 26.5781935,4.13125714 26.5717419,4.54911429 L26.2852903,19.7295429 C26.2852903,19.7398286 26.5717419,25.8341143 26.5717419,25.8341143 C26.5781935,26.2474714 26.920129,26.5862571 27.3336774,26.5862571" id="Fill-12" fill="#FFFFFF"></path>
                    <path d="M22.2920645,26.5624071 C22.6514194,26.5624071 22.9410968,26.27505 22.9507742,25.9079786 L22.9507742,25.9131214 L23.3417419,19.73205 L22.9507742,6.48726429 C22.9404516,6.12147857 22.6507742,5.83476429 22.2914194,5.83476429 C21.9294839,5.83476429 21.6398065,6.12147857 21.6320645,6.48726429 L21.2843226,19.7333357 L21.6333548,25.9118357 C21.6404516,26.27505 21.930129,26.5624071 22.2920645,26.5624071" id="Fill-14" fill="#FFFFFF"></path>
                    <path d="M10.0252258,26.5046786 C10.2387742,26.5046786 10.4116774,26.3336786 10.4278065,26.1099643 L10.9942581,19.72575 L10.4278065,13.6520357 C10.4123226,13.4283214 10.2394194,13.25925 10.0252258,13.25925 C9.80845161,13.25925 9.63554839,13.4296071 9.622,13.65525 L9.12329032,19.72575 L9.622,26.1093214 C9.63554839,26.3336786 9.80845161,26.5046786 10.0252258,26.5046786" id="Fill-16" fill="#FFFFFF"></path>
                    <path d="M5.25329032,26.1543857 C5.40941935,26.1543857 5.53587097,26.0322429 5.55393548,25.8618857 L6.19006452,19.7245286 L5.55458065,13.3544571 C5.53587097,13.1841 5.40941935,13.0613143 5.25329032,13.0613143 C5.09522581,13.0613143 4.96941935,13.1847429 4.95264516,13.3544571 C4.95264516,13.3551 4.39264516,19.7245286 4.39264516,19.7245286 L4.95264516,25.8606 C4.96877419,26.0316 5.09458065,26.1543857 5.25329032,26.1543857" id="Fill-18" fill="#FFFFFF"></path>
                    <path d="M24.8027742,6.26721429 C24.4130968,6.26721429 24.0995484,6.57642857 24.0918065,6.97242857 L23.7743871,19.7337857 L24.0918065,25.8743571 C24.0995484,26.2645714 24.4124516,26.5744286 24.8027742,26.5744286 C25.1924516,26.5744286 25.5034194,26.2658571 25.5130968,25.8698571 L25.5130968,25.875 L25.8685806,19.7344286 L25.5130968,6.97114286 C25.5034194,6.57642857 25.1924516,6.26721429 24.8027742,6.26721429" id="Fill-20" fill="#FFFFFF"></path>
                    <path d="M14.874,26.56935 C15.1436774,26.56935 15.3662581,26.3501357 15.3791613,26.0704929 L15.8746452,19.72935 L15.3791613,7.59413571 C15.3656129,7.31385 15.1436774,7.09527857 14.874,7.09527857 C14.6017419,7.09527857 14.3798065,7.31449286 14.3681935,7.59413571 C14.3681935,7.59477857 13.9294839,19.72935 13.9294839,19.72935 L14.3688387,26.0730643 C14.3798065,26.3501357 14.6017419,26.56935 14.874,26.56935" id="Fill-22" fill="#FFFFFF"></path>
                    <path d="M20.4070323,25.9710429 L20.4070323,25.9671857 L20.8328387,19.7321143 L20.4070323,6.1389 C20.3967097,5.8014 20.1296129,5.53654286 19.7999355,5.53654286 C19.4683226,5.53654286 19.2012258,5.8014 19.1921935,6.1389 L18.814129,19.7308286 L19.1928387,25.9697571 C19.201871,26.3046857 19.4689677,26.5689 19.7999355,26.5689 C20.1302581,26.5689 20.3954194,26.3046857 20.4070323,25.9684714 L20.4070323,25.9710429 Z" id="Fill-24" fill="#FFFFFF"></path>
                    <g id="Group-28" transform="translate(30.967742, 0.246086)">
                        <mask id="mask-4" fill="white">
                            <use xlink:href="#path-3"></use>
                        </mask>
                        <g id="Clip-27"></g>
                        <path d="M21.6443871,11.6505 C20.6334194,11.6505 19.6682581,11.8542857 18.7901935,12.2213571 C18.2030968,5.59478571 12.6256774,0.396642857 5.82374194,0.396642857 C4.15858065,0.396642857 2.53664516,0.723214286 1.10374194,1.27542857 C0.546967742,1.49014286 0.398580645,1.71128571 0.393419355,2.14007143 L0.393419355,25.4764286 C0.399225806,25.9257857 0.749548387,26.3005714 1.19019355,26.3449286 C1.20890323,26.3468571 21.512129,26.3571429 21.6437419,26.3571429 C25.7179355,26.3571429 29.0224516,23.0657143 29.0224516,19.0035 C29.0224516,14.9432143 25.7192258,11.6505 21.6443871,11.6505" id="Fill-26" fill="#FFFFFF" mask="url(#mask-4)"></path>
                    </g>
                    <path d="M29.8525806,2.36584286 C29.4093548,2.36584286 29.0454839,2.72841429 29.0390323,3.17391429 L28.7067742,19.7371286 L29.0396774,25.7484857 C29.0454839,26.1869143 29.4093548,26.5494857 29.8525806,26.5494857 C30.2951613,26.5494857 30.6583871,26.1869143 30.6648387,25.7420571 L30.6648387,25.7491286 L31.0267742,19.7371286 L30.6648387,3.17262857 C30.6583871,2.72841429 30.2951613,2.36584286 29.8525806,2.36584286" id="Fill-29" fill="#FFFFFF"></path>
                </g>
            </g>
        </g>
    </g>
</svg>