<?xml version="1.0" encoding="UTF-8" standalone="no"?>
<svg width="51px" height="23px" viewBox="0 0 51 23" version="1.1" xmlns="http://www.w3.org/2000/svg" xmlns:xlink="http://www.w3.org/1999/xlink">
    <!-- Generator: Sketch 41.2 (35397) - http://www.bohemiancoding.com/sketch -->
    <title>Fill 8</title>
    <desc>Created with Sketch.</desc>
    <defs></defs>
    <g id="Design-R3" stroke="none" stroke-width="1" fill="none" fill-rule="evenodd">
        <g id="Mobile-Nav-Open" transform="translate(-225.000000, -607.000000)" fill="#FFFFFF">
            <g id="Page-1-Copy-2" transform="translate(44.000000, 598.000000)">
                <path d="M224.170222,12.3710284 C222.176509,12.3710284 220.625862,13.9748843 220.625862,15.9305538 C220.625862,17.9080157 222.176509,19.5118716 224.170222,19.5118716 C226.163934,19.5118716 227.936193,17.9080157 227.936193,15.9305538 C227.936193,13.9748843 226.163934,12.3710284 224.170222,12.3710284 L224.170222,12.3710284 Z M224.170222,20.4348335 C221.733445,20.4348335 219.739732,18.4352657 219.739732,15.9523462 C219.739732,13.4915326 221.733445,11.4921216 224.170222,11.4921216 C226.82861,11.4921216 228.822323,13.4915326 228.822323,15.9523462 C228.822323,18.4352657 226.82861,20.4348335 224.170222,20.4348335 L224.170222,20.4348335 Z M212.872307,30.388147 C211.32166,30.388147 210.214077,29.7288886 209.549401,28.5204309 C210.214077,28.8501386 210.657142,29.0697869 211.32166,29.2895919 C212.872307,29.9486936 214.422955,29.0697869 215.087631,27.6634733 C215.530696,26.3013716 215.087631,24.4338123 213.536984,23.8407148 L211.986178,23.2253547 C212.207789,23.1812996 212.650854,23.1372445 212.872307,23.1372445 C214.866178,23.1372445 216.416825,24.7853123 216.416825,26.8066725 C216.416825,28.8501386 214.866178,30.388147 212.872307,30.388147 L212.872307,30.388147 Z M187.81773,13.579486 C186.333471,13.052236 184.694147,13.7771852 184.096018,15.227397 C183.520176,16.6995581 184.184694,18.3474691 185.624536,18.9846216 L187.175341,19.5999818 C186.931442,19.6658292 186.66573,19.6876216 186.377572,19.6876216 C184.339759,19.6876216 182.700277,18.0618165 182.700277,16.0404564 C182.700435,13.9969903 184.339759,12.3710284 186.37773,12.3710284 C187.795442,12.3710284 189.036119,13.1400326 189.656694,14.3045919 L187.81773,13.579486 Z M224.170222,9.29485466 C220.625862,9.29485466 217.524408,12.2391767 217.524408,15.9084479 L213.31553,21.8629394 C213.093919,21.8408335 213.093919,21.8190411 212.872307,21.8190411 C211.986178,21.8190411 211.100206,22.0827445 210.214077,22.5221979 L191.295701,14.9636936 C190.78609,12.7226852 188.770248,11.0526682 186.37773,11.0526682 C183.630823,11.0526682 181.366814,13.2939903 181.366814,16.0404564 C181.366814,18.7648165 183.630823,21.0059818 186.37773,21.0059818 C187.330564,21.0059818 188.194406,20.7643843 188.9476,20.302825 L207.999069,27.8613292 C208.442134,30.1684987 210.435846,31.7065072 212.872623,31.7065072 C215.309401,31.7065072 217.524724,29.7288886 217.746178,27.2901809 L224.17038,22.6321004 C227.936509,22.6321004 231.037805,19.6437233 231.037805,15.9523462 C231.037488,12.283075 227.936193,9.29485466 224.170222,9.29485466 L224.170222,9.29485466 Z" id="Fill-8"></path>
            </g>
        </g>
    </g>
</svg>