<?xml version="1.0" encoding="UTF-8" standalone="no"?>
<svg width="156px" height="72px" viewBox="0 0 156 72" version="1.1" xmlns="http://www.w3.org/2000/svg" xmlns:xlink="http://www.w3.org/1999/xlink">
    <!-- Generator: Sketch 41.2 (35397) - http://www.bohemiancoding.com/sketch -->
    <title>Group 2</title>
    <desc>Created with Sketch.</desc>
    <defs></defs>
    <g id="Design-R3" stroke="none" stroke-width="1" fill="none" fill-rule="evenodd">
        <g id="Mobile-Copy" transform="translate(-110.000000, -2818.000000)" stroke="#100219" stroke-width="1.6" fill="#FEFEFE">
            <g id="Group-2" transform="translate(111.000000, 2819.000000)">
                <path d="M76.2906128,64.7926116 C59.3689405,64.7926116 52.4672485,60.4347279 52.4672485,49.7513373 C52.4672485,39.6501968 64.8786096,20.8490254 71.1488916,19.2573918 C71.1646207,19.2534577 71.1781028,19.2450275 71.1938318,19.2405313 C71.4786404,19.3608031 71.7915365,19.4276831 72.1201618,19.4276831 L74.9828528,19.4276831 C75.7069519,19.4276831 76.2029794,20.1583059 75.9355852,20.8316029 L73.2605195,27.5730027 C72.7762888,28.7931427 73.37287,30.1762678 74.5935583,30.6607269 C74.8806139,30.7753785 75.177781,30.8298942 75.4693306,30.8298942 C76.4153219,30.8298942 77.3096319,30.2605704 77.6798269,29.3276214 L81.223362,20.3966013 L81.223362,40.7466929 C81.223362,42.0606898 82.2878831,43.125151 83.6006988,43.125151 C84.9140763,43.125151 85.9785974,42.0606898 85.9785974,40.7466929 L85.9785974,23.4421741 C85.9785974,22.7559508 86.8116765,22.4119961 87.2857956,22.9071335 C93.2746397,29.1573301 100.114539,41.7954176 100.114539,49.7513373 C100.114539,60.4347279 93.2122851,64.7926116 76.2906128,64.7926116 M83.5360973,7.24651587 L81.3750352,13.6231664 C81.1632545,14.2492539 80.5756613,14.670205 79.9150403,14.670205 L73.2717545,14.670205 C72.6380977,14.670205 72.0690423,14.2824129 71.8376003,13.6928566 L69.3310603,7.31564403 C68.9333395,6.30345051 69.6787852,5.20864042 70.7652146,5.20864042 L82.0761024,5.20864042 C83.1316355,5.20864042 83.8748341,6.24612473 83.5360973,7.24651587 M85.7112032,15.6430573 L89.7940208,3.59340213 C90.0400684,2.86839956 89.9215386,2.06752462 89.4749454,1.44424722 C89.0283521,0.82096981 88.308747,0.451724314 87.5425166,0.451724314 L65.0128684,0.451724314 C64.2269766,0.451724314 63.4910807,0.84120244 63.0484197,1.49089467 C62.6057587,2.14114891 62.5125078,2.96900069 62.8006868,3.70074747 L67.506488,15.6734062 C58.7723592,20.5713888 47.7125749,38.9656595 47.7125749,49.7513373 C47.7125749,69.5495277 68.4749494,69.5495277 76.2906128,69.5495277 C84.1068379,69.5495277 104.869774,69.5495277 104.869774,49.7513373 C104.869774,38.8881011 94.1588382,20.4668535 85.7112032,15.6430573" id="Fill-75-Copy-2"></path>
                <path d="M123.449284,57.6786565 C126.812497,59.1904836 131.500884,59.9154862 136.014566,59.9154862 C140.531618,59.9154862 145.223937,59.1893596 148.587711,57.6752844 L148.592767,60.7720009 C148.246166,61.6729149 143.994261,63.9378454 136.014566,63.9378454 C128.034871,63.9378454 123.783527,61.6729149 123.449284,60.8602376 L123.449284,57.6786565 Z M123.449284,49.7300431 C126.812497,51.2418701 131.500884,51.9668727 136.014566,51.9668727 C140.53218,51.9668727 145.225061,51.2407461 148.589397,49.7261089 L148.592767,51.9916015 C148.246166,52.8930775 143.994261,55.1585701 136.014566,55.1585701 C128.034871,55.1585701 123.783527,52.8930775 123.449284,52.0798382 L123.449284,49.7300431 Z M123.449284,41.3823972 C126.812497,42.8942242 131.500884,43.6192268 136.014566,43.6192268 C140.53218,43.6192268 145.224499,42.8931002 148.588273,41.378463 L148.592767,44.04355 C148.246166,44.9450261 143.994261,47.2093946 136.014566,47.2093946 C128.034871,47.2093946 123.783527,44.9450261 123.449284,44.1317868 L123.449284,41.3823972 Z M146.985031,34.6690981 C147.924843,35.1243323 147.923158,36.4461975 146.983346,36.9014316 C145.037997,37.843935 141.364135,38.8623107 136.014566,38.8623107 C130.664996,38.8623107 126.991134,37.844497 125.045785,36.9014316 C124.106535,36.4461975 124.104288,35.1243323 125.0441,34.6690981 C125.574394,34.4122561 126.23333,34.149794 127.018098,33.9041923 C129.783606,34.5937878 132.940656,34.9293122 136.014566,34.9293122 C139.088476,34.9293122 142.246087,34.5937878 145.011595,33.9041923 C145.796363,34.149794 146.454737,34.4122561 146.985031,34.6690981 L146.985031,34.6690981 Z M123.449284,24.3453987 C126.812497,25.8572258 131.500884,26.5822283 136.014566,26.5822283 C140.53218,26.5822283 145.224499,25.8561017 148.588273,24.3414646 L148.592767,27.0065516 C148.246166,27.9074656 143.994261,30.1723961 136.014566,30.1723961 C128.034871,30.1723961 123.783527,27.9074656 123.449284,27.0947883 L123.449284,24.3453987 Z M136.014566,15.6684105 C141.365259,15.6684105 145.040244,16.6873483 146.985031,17.6298516 C147.925405,18.0856478 147.925405,19.4069509 146.985593,19.8633091 C145.040244,20.8063745 141.365821,21.8247502 136.014566,21.8247502 C130.662749,21.8247502 126.988326,20.8058125 125.0441,19.8627471 C124.103726,19.4069509 124.103726,18.0856478 125.0441,17.6298516 C126.988887,16.6873483 130.663311,15.6684105 136.014566,15.6684105 L136.014566,15.6684105 Z M136.014566,68.6953236 C144.356591,68.6953236 153.335644,66.2426792 153.335644,60.8602376 L153.335644,53.3629242 C153.335644,53.1662181 153.304748,52.9785042 153.259807,52.7958485 C153.296883,52.5609252 153.335644,52.3271259 153.335644,52.0798382 L153.335644,44.5825248 C153.335644,44.5032803 153.319915,44.429094 153.31205,44.3515356 C153.315983,44.2767873 153.335644,44.2076591 153.335644,44.1317868 L153.335644,36.6344733 C153.335644,36.4855387 153.317668,36.3405382 153.291827,36.1994718 C153.304186,36.0600914 153.335644,35.9268933 153.335644,35.7835788 C153.335644,34.0272742 152.359318,32.5935675 150.777423,31.4470518 C152.362689,30.296602 153.335644,28.8555891 153.335644,27.0947883 L153.335644,19.5974749 C153.335644,19.4485402 153.317668,19.3035397 153.291827,19.1619113 C153.304186,19.022531 153.335644,18.8898948 153.335644,18.7465804 C153.335644,13.3635768 144.356591,10.9114944 136.014566,10.9114944 C127.67254,10.9114944 118.694611,13.3635768 118.694611,18.7465804 C118.694611,18.8898948 118.725507,19.022531 118.738427,19.1619113 C118.712025,19.3035397 118.694611,19.4485402 118.694611,19.5974749 L118.694611,27.0947883 C118.694611,28.8555891 119.667004,30.296602 121.251708,31.4470518 C119.670937,32.5935675 118.694611,34.0272742 118.694611,35.7835788 C118.694611,35.9268933 118.725507,36.0600914 118.738427,36.1994718 C118.712025,36.3405382 118.694611,36.4855387 118.694611,36.6344733 L118.694611,44.1317868 C118.694611,44.2076591 118.71371,44.2767873 118.717643,44.3515356 C118.709778,44.429094 118.694611,44.5032803 118.694611,44.5825248 L118.694611,52.0798382 C118.694611,52.3271259 118.73281,52.5609252 118.769886,52.7958485 C118.724945,52.9785042 118.694611,53.1662181 118.694611,53.3629242 L118.694611,60.8602376 C118.694611,66.2426792 127.67254,68.6953236 136.014566,68.6953236 L136.014566,68.6953236 Z" id="Fill-101-Copy-2"></path>
                <path d="M17.3210784,47.0695099 C9.3402598,47.0695099 5.08947819,44.8040173 4.75523541,43.990778 L4.75523541,41.2413884 C8.11844799,42.7532155 12.8073966,43.4782181 17.3210784,43.4782181 C21.8386925,43.4782181 26.5304499,42.7520914 29.8942242,41.2380163 L29.8987182,43.9025413 C29.5521169,44.8040173 25.301897,47.0695099 17.3210784,47.0695099 M6.12085589,51.8241779 C6.74327772,51.5032659 7.56961574,51.1683035 8.5942524,50.862566 C11.2957205,51.5083241 14.3454751,51.826426 17.3210784,51.826426 C20.2966817,51.826426 23.3458746,51.5083241 26.0473427,50.862566 C27.0719793,51.1683035 27.8983173,51.5032659 28.5207392,51.8241779 C29.3184278,52.2350127 29.3240453,53.4028851 28.5274802,53.8165299 C26.6529119,54.7905063 22.8970343,55.8965567 17.3210784,55.8965567 C11.7445608,55.8965567 7.98868314,54.7905063 6.11411485,53.8165299 C5.31754973,53.4028851 5.32316725,52.2350127 6.12085589,51.8241779 M17.3210784,64.2447646 C9.34138331,64.2447646 5.08947819,61.9792721 4.75523541,61.1660328 L4.75523541,58.4166432 C8.11844799,59.9284702 12.8073966,60.6534728 17.3210784,60.6534728 C21.8386925,60.6534728 26.5304499,59.9273462 29.8942242,58.4132711 L29.8987182,61.077796 C29.5521169,61.9792721 25.3007735,64.2447646 17.3210784,64.2447646 M17.3210784,32.5649623 C22.5914409,32.5649623 26.2355298,33.553551 28.2022255,34.484252 C29.1830455,34.9484785 29.1830455,36.3383477 28.2022255,36.8025742 C26.2355298,37.7332752 22.5914409,38.7213019 17.3210784,38.7213019 C12.0507159,38.7213019 8.4060653,37.7332752 6.43936959,36.8025742 C5.45854962,36.3383477 5.45854962,34.9484785 6.43936959,34.484252 C8.4060653,33.553551 12.0501541,32.5649623 17.3210784,32.5649623 M17.3210784,27.8080462 C8.97905291,27.8080462 0,30.2601285 0,35.6436941 C0,35.7864466 0.0314581433,35.9196447 0.0438166996,36.058463 C0.0179760819,36.2000914 0,36.3445299 0,36.4934646 L0,43.990778 C0,45.7869859 1.01452512,47.2493555 2.6559661,48.4110456 C1.01621038,49.5688017 0,51.0261131 0,52.8183869 C0,52.9617013 0.0314581433,53.0943375 0.0438166996,53.2337178 C0.0179760819,53.3753462 0,53.5197847 0,53.6687193 L0,61.1660328 C0,66.5495984 8.97905291,69.0016807 17.3210784,69.0016807 C25.6631039,69.0016807 34.6410333,66.5495984 34.6410333,61.1660328 L34.6410333,53.6687193 C34.6410333,53.5197847 34.623619,53.3753462 34.5972166,53.2337178 C34.6101369,53.0943375 34.6410333,52.9617013 34.6410333,52.8183869 C34.6410333,51.0261131 33.6253847,49.5688017 31.985629,48.4110456 C33.6270699,47.2493555 34.6410333,45.7869859 34.6410333,43.990778 L34.6410333,36.4934646 C34.6410333,36.3445299 34.623619,36.2000914 34.5972166,36.058463 C34.6101369,35.9196447 34.6410333,35.7864466 34.6410333,35.6436941 C34.6410333,30.2601285 25.6631039,27.8080462 17.3210784,27.8080462" id="Fill-109-Copy-2"></path>
            </g>
        </g>
    </g>
</svg>