<?xml version="1.0" encoding="UTF-8" standalone="no"?>
<svg width="14px" height="21px" viewBox="0 0 14 21" version="1.1" xmlns="http://www.w3.org/2000/svg" xmlns:xlink="http://www.w3.org/1999/xlink">
    <!-- Generator: Sketch 41.2 (35397) - http://www.bohemiancoding.com/sketch -->
    <title>Shape</title>
    <desc>Created with Sketch.</desc>
    <defs></defs>
    <g id="Design-R3" stroke="none" stroke-width="1" fill="none" fill-rule="evenodd">
        <g id="iPad-Portrait" transform="translate(-709.000000, -35.000000)" fill="#FFFFFF">
            <g id="Group-5-Copy-4" transform="translate(39.000000, 33.168686)">
                <g id="Page-1-Copy-2" transform="translate(504.000000, 0.000000)">
                    <path d="M178.075128,17.9752108 C177.648777,18.1525795 176.833553,18.3069003 176.225403,18.3201779 C174.38975,18.363017 174.033476,17.1954647 174.018685,16.3490802 L174.018685,10.1230119 L178.62311,10.1230119 L178.62311,7.09471637 L174.034624,7.09471637 L174.034624,2 L170.6768,2 C170.621514,2 170.525014,2.04221276 170.511372,2.1493104 C170.314926,3.7085519 169.478736,6.44524118 166,7.53951606 L166,10.1228866 L168.320594,10.1228866 L168.320594,16.6573461 C168.320594,18.8948726 170.212682,22.0736059 175.207558,21.9987002 C176.892861,21.9735228 178.764557,21.3582437 179.177841,20.8270144 L178.075128,17.9752108" id="Shape"></path>
                </g>
            </g>
        </g>
    </g>
</svg>