<?xml version="1.0" encoding="UTF-8" standalone="no"?>
<svg width="31px" height="24px" viewBox="0 0 31 24" version="1.1" xmlns="http://www.w3.org/2000/svg" xmlns:xlink="http://www.w3.org/1999/xlink">
    <!-- Generator: Sketch 41.2 (35397) - http://www.bohemiancoding.com/sketch -->
    <title>Fill 6</title>
    <desc>Created with Sketch.</desc>
    <defs></defs>
    <g id="Design-R3" stroke="none" stroke-width="1" fill="none" fill-rule="evenodd">
        <g id="Mobile-Nav-Open" transform="translate(-103.000000, -604.000000)" fill="#FFFFFF">
            <g id="Page-1-Copy-2" transform="translate(44.000000, 598.000000)">
                <path d="M89.2164566,8.92248729 C88.1262613,9.40207627 86.9545027,9.72613983 85.7247333,9.87194492 C86.9801098,9.12551695 87.9438507,7.94386864 88.3978222,6.53598729 C87.2232184,7.22691525 85.9220022,7.72876695 84.537326,7.99921186 C83.4283205,6.8272839 81.8485884,6.0949661 80.0998814,6.0949661 C76.7423578,6.0949661 74.0204259,8.79471186 74.0204259,12.1247119 C74.0204259,12.5972458 74.0743271,13.0575508 74.1778617,13.4987288 C69.1253743,13.2472542 64.6458836,10.8468008 61.6473326,7.19869492 C61.1239693,8.08936017 60.8242722,9.12504661 60.8242722,10.2301864 C60.8242722,12.3220975 61.8977124,14.1677076 63.5288167,15.2490169 C62.5323557,15.217661 61.5950121,14.9464322 60.7751131,14.49475 C60.7747969,14.5199915 60.7747969,14.5452331 60.7747969,14.5706314 C60.7747969,17.4920636 62.8703052,19.9292034 65.6513546,20.4831059 C65.1411109,20.6209153 64.6041537,20.6944449 64.0496509,20.6944449 C63.6579583,20.6944449 63.2770143,20.6568178 62.9060285,20.5864237 C63.6794555,22.9820169 65.9246542,24.72525 68.5849396,24.7738517 C66.5042898,26.3910339 63.8828891,27.355072 61.0348189,27.355072 C60.5440176,27.355072 60.0601712,27.3265381 59.5845445,27.2708814 C62.2750209,28.9818178 65.4703666,29.9798771 68.9036048,29.9798771 C80.0856553,29.9798771 86.20036,20.7919619 86.20036,12.8237924 C86.20036,12.5624407 86.1946696,12.3023432 86.1829726,12.0438136 C87.3705379,11.1937542 88.4014577,10.131572 89.2164566,8.92248729" id="Fill-6"></path>
            </g>
        </g>
    </g>
</svg>