<?xml version="1.0" encoding="UTF-8" standalone="no"?>
<svg width="37px" height="35px" viewBox="0 0 37 35" version="1.1" xmlns="http://www.w3.org/2000/svg" xmlns:xlink="http://www.w3.org/1999/xlink">
    <!-- Generator: Sketch 41.2 (35397) - http://www.bohemiancoding.com/sketch -->
    <title>Fill 7</title>
    <desc>Created with Sketch.</desc>
    <defs></defs>
    <g id="Design-R3" stroke="none" stroke-width="1" fill="none" fill-rule="evenodd">
        <g id="Mobile-Nav-Open" transform="translate(-166.000000, -598.000000)" fill="#FFFFFF">
            <g id="Page-1-Copy-2" transform="translate(44.000000, 598.000000)">
                <path d="M128.340609,-3.13559317e-05 L131.055111,0.00326101695 L131.408077,1.37571017 L131.690861,2.41468898 L131.938396,3.41698136 L132.167436,4.45596017 L132.361386,5.33627797 L132.467291,5.33643475 L132.663454,4.45643051 L132.87811,3.41823559 L133.144929,2.41641356 L133.413329,1.37821864 L133.786527,0.00655338983 L136.433377,0.00968898305 L133.616762,8.31195593 L133.609649,14.2236466 L131.108538,14.2206678 L131.115651,8.30897712 L128.340609,-3.13559317e-05 Z M139.774303,5.20348559 C139.206207,5.20285847 138.929272,5.55576949 138.928639,6.1893161 L138.921842,11.6960449 C138.921368,12.3112483 139.243353,12.6770153 139.765135,12.6776424 C140.317899,12.6782695 140.640832,12.3132864 140.641465,11.6980831 L140.648262,6.19135424 C140.648894,5.55780763 140.326909,5.20411271 139.774303,5.20348559 L139.774303,5.20348559 Z M139.776358,3.49787966 C141.910593,3.50038814 142.984033,4.50377797 142.981662,6.49268475 L142.975656,11.4023966 C142.973127,13.397261 141.897315,14.3857568 139.763239,14.3832483 C137.659669,14.3808966 136.570738,13.3895788 136.573267,11.3947144 L136.579116,6.48500254 C136.581645,4.49625254 137.672947,3.49552797 139.776358,3.49787966 L139.776358,3.49787966 Z M149.635695,14.2426169 L149.452494,13.3287483 C148.484486,14.1195449 147.915915,14.3929686 147.240332,14.3921847 C146.687568,14.3914008 146.089122,14.1319305 145.813135,13.7965788 C145.521974,13.4308119 145.445627,13.0346297 145.44705,11.9503415 L145.457008,3.6447822 L147.806058,3.64760424 L147.796099,11.8998585 C147.795467,12.4282059 147.964126,12.6873627 148.409403,12.6879898 C148.685706,12.6883034 148.962167,12.5820068 149.453917,12.2475958 L149.46435,3.64948559 L151.813399,3.65230763 L151.800595,14.2452822 L149.635695,14.2426169 Z M151.574716,23.3058924 C151.06795,23.305422 150.791331,23.5487441 150.790699,24.0056 L150.78896,25.635011 L152.35494,25.6368924 L152.356995,24.0074814 C152.357311,23.5506254 152.050659,23.3065195 151.574716,23.3058924 L151.574716,23.3058924 Z M143.744341,23.2966424 C143.48337,23.2963288 143.237575,23.3874178 142.791981,23.6915703 L142.78471,29.691528 C143.229513,29.9814136 143.475151,30.0883373 143.735963,30.0886508 C144.135401,30.0891212 144.304376,29.8456424 144.305008,29.3735788 L144.311489,24.0283331 C144.312121,23.5104898 144.143621,23.2972695 143.744341,23.2966424 L143.744341,23.2966424 Z M132.605443,21.8367102 L134.73209,21.8393754 L134.722923,29.3621339 C134.72229,29.8341975 134.890791,30.0781466 135.283906,30.0786169 C135.560367,30.0787737 135.79083,29.9726339 136.228679,29.683689 L136.238163,21.8411 L138.372398,21.8436085 L138.360701,31.4984136 L136.410773,31.4962186 L136.227572,30.6583881 C135.354562,31.3731466 134.841474,31.6313627 134.230382,31.6305788 C133.71761,31.6299517 133.180494,31.385689 132.935015,31.0809093 C132.668512,30.7454008 132.595168,30.3951551 132.596275,29.4054051 L132.605443,21.8367102 Z M151.607278,21.7526763 C153.388231,21.7548712 154.477478,22.6546297 154.475581,24.1622229 L154.471946,26.994761 L150.787221,26.9903712 L150.784692,29.0918458 C150.783744,29.8077017 150.9984,30.0972737 151.566497,30.0979008 C151.827467,30.0982144 152.073421,29.9767102 152.196398,29.8092695 C152.304042,29.6266212 152.350356,29.4135576 152.351146,28.7130661 L152.351937,28.1343924 L154.470839,28.1369008 L154.470365,28.4871466 C154.485223,28.7307822 154.485065,28.9135873 154.484907,29.0201975 C154.48301,30.7258034 153.437706,31.6534686 151.503111,31.6511169 C149.676161,31.6490788 148.648718,30.6731254 148.650615,28.9218966 L148.655989,24.4445831 C148.65836,22.6173161 149.642018,21.7503246 151.607278,21.7526763 L151.607278,21.7526763 Z M140.66391,18.5570364 L142.798145,18.5595449 L142.793087,22.7624941 C143.623103,22.032528 144.191357,21.7438966 144.836275,21.7446805 C145.312218,21.7453076 145.849491,21.9743627 146.094655,22.29435 C146.355309,22.6297017 146.431498,22.9801042 146.430233,24.0308415 L146.423752,29.3760873 C146.422646,30.3812017 146.345351,30.7312907 146.084064,31.0813797 C145.837952,31.4007398 145.300363,31.6437483 144.778264,31.6431212 C144.148837,31.6423373 143.611722,31.3372441 142.783603,30.5900322 L142.782497,31.5037441 L140.648262,31.5012356 L140.66391,18.5570364 Z M125.594334,18.5390068 L132.21786,18.5470025 L132.215963,20.2372441 L129.992736,20.2345788 L129.979142,31.4885364 L127.706756,31.4858712 L127.72035,20.2319136 L125.592279,20.2294051 L125.594334,18.5390068 Z M128.505315,16.1363585 C125.02766,16.1322822 122.205513,18.9309559 122.201245,22.3725831 L122.194606,27.824439 C122.190497,31.2812737 125.005847,34.086689 128.483502,34.0907653 L152.083695,34.1188288 C155.568938,34.1229051 158.39725,31.3243881 158.401517,27.8675534 L158.408156,22.4156975 C158.412266,18.9739136 155.590751,16.1684983 152.105351,16.164422 L128.505315,16.1363585 Z" id="Fill-7"></path>
            </g>
        </g>
    </g>
</svg>