<svg width="169" height="79" viewBox="0 0 169 79" xmlns="http://www.w3.org/2000/svg"><title>Group 9 Copy</title><g fill="#FEFEFE" fill-rule="evenodd"><path d="M106.767 71.478H68.683c-4.366-4.77-6.757-10.907-6.757-17.41 0-10.715 6.756-20.443 16.813-24.206a2.956 2.956 0 0 0 1.923-2.768v-6.29H95v6.29c0 1.232.766 2.335 1.922 2.768 10.056 3.763 16.813 13.491 16.813 24.206 0 6.175-2.527 12.456-6.97 17.41M82.005 6.912h11.654c.741 0 1.343.6 1.343 1.34v5.3c0 .74-.602 1.34-1.343 1.34H82.004c-.741 0-1.342-.6-1.342-1.34v-5.3c0-.74.6-1.34 1.342-1.34m18.922 18.206v-4.314h2.347a2.96 2.96 0 0 0 2.963-2.956 2.96 2.96 0 0 0-2.963-2.956h-2.347V3.956A2.959 2.959 0 0 0 97.964 1H77.699a2.96 2.96 0 0 0-2.964 2.956v10.936h-2.1a2.959 2.959 0 0 0-2.963 2.956 2.959 2.959 0 0 0 2.963 2.956h2.1v4.314C63.45 30.216 56 41.598 56 54.068c0 8.484 3.311 16.458 9.323 22.457a2.965 2.965 0 0 0 2.095.865h40.635c.8 0 1.564-.322 2.122-.893 6.03-6.173 9.487-14.348 9.487-22.43 0-12.47-7.449-23.851-18.736-28.949" stroke="#100219" stroke-width="2"/><path d="M76.393 66.304h22.712c1.971 0 3.781-1.047 4.81-2.724.965-1.57 1.666-3.31 2.131-5.16.796-3.154-1.734-6.183-4.994-6.183H74.527c-3.223 0-5.727 2.96-5.016 6.097.445 1.959 1.15 3.785 2.187 5.427 1.01 1.599 2.8 2.543 4.695 2.543"/><path d="M10.692 59.348A15.995 15.995 0 0 1 14.394 62c1.049 1.008 1.821 2.241 2.406 3.528.586-1.288 1.357-2.521 2.405-3.531a15.98 15.98 0 0 1 3.702-2.648 16.003 16.003 0 0 1-3.7-2.636c-1.05-1.013-1.821-2.249-2.407-3.54-.587 1.292-1.361 2.53-2.414 3.542-1.195 1.152-2.479 1.997-3.694 2.634m6.105 18.33c-2.849 0-3.459-2.849-3.948-5.136-.427-1.997-1.072-5.013-2.492-6.378-1.71-1.656-3.828-2.384-5.374-2.916C3.397 62.702 1 61.878 1 59.346c0-2.535 2.4-3.357 3.988-3.904 1.547-.53 3.663-1.257 5.365-2.897 1.422-1.368 2.068-4.395 2.496-6.398.489-2.293 1.097-5.147 3.948-5.147 2.85 0 3.461 2.857 3.954 5.152.43 2.004 1.078 5.03 2.492 6.393 1.7 1.64 3.823 2.366 5.37 2.897 1.592.545 3.996 1.369 3.996 3.904 0 2.532-2.4 3.357-3.988 3.902-1.55.532-3.671 1.261-5.377 2.91-1.415 1.366-2.064 4.382-2.493 6.377-.493 2.292-1.106 5.143-3.954 5.143M145.692 19.348A15.995 15.995 0 0 1 149.394 22c1.049 1.008 1.821 2.241 2.406 3.528.586-1.288 1.357-2.521 2.405-3.531a15.98 15.98 0 0 1 3.702-2.648 16.003 16.003 0 0 1-3.7-2.636c-1.05-1.013-1.821-2.249-2.407-3.54-.587 1.292-1.361 2.53-2.414 3.542-1.195 1.152-2.479 1.997-3.694 2.634m6.105 18.33c-2.849 0-3.459-2.849-3.948-5.136-.427-1.997-1.072-5.013-2.492-6.378-1.71-1.656-3.828-2.384-5.374-2.916-1.586-.546-3.983-1.37-3.983-3.902 0-2.535 2.4-3.357 3.988-3.904 1.547-.53 3.663-1.257 5.365-2.897 1.422-1.368 2.068-4.395 2.496-6.398.489-2.293 1.097-5.147 3.948-5.147 2.85 0 3.461 2.857 3.954 5.152.43 2.004 1.078 5.03 2.492 6.393 1.7 1.64 3.823 2.366 5.37 2.897 1.592.545 3.996 1.369 3.996 3.904 0 2.532-2.4 3.357-3.988 3.902-1.55.532-3.671 1.261-5.377 2.91-1.415 1.366-2.064 4.382-2.493 6.377-.493 2.292-1.106 5.143-3.954 5.143" stroke="#100219" stroke-width="2"/></g></svg>