<svg width="120" height="67" viewBox="0 0 120 67" xmlns="http://www.w3.org/2000/svg"><title>Group 6</title><g fill="#FEFEFE" fill-rule="evenodd"><path d="M60.238 20.856c10.64 0 22.967 11.67 22.967 11.67a.526.526 0 0 1 0 .77S70.909 44.962 60.238 44.962c-10.637 0-22.965-11.667-22.965-11.667a.527.527 0 0 1 0-.77S49.6 20.856 60.238 20.856m0 28.864c15.608 0 27.88-14.666 28.395-15.29a2.393 2.393 0 0 0 0-3.041c-.515-.625-12.787-15.291-28.395-15.291-15.609 0-27.881 14.666-28.396 15.29a2.393 2.393 0 0 0 0 3.041c.515.625 12.787 15.29 28.396 15.29" stroke="#100219" stroke-width="1.6"/><path d="M60.82 29.71c1.804 0 3.272 1.478 3.272 3.295 0 1.816-1.468 3.294-3.272 3.294-1.804 0-3.271-1.478-3.271-3.294 0-1.817 1.467-3.295 3.271-3.295m0 11.348c4.409 0 7.996-3.613 7.996-8.053 0-4.441-3.587-8.054-7.996-8.054-4.408 0-7.996 3.613-7.996 8.054 0 4.44 3.588 8.053 7.996 8.053M26.522 23.594a2.403 2.403 0 0 0 2.049-1.082 2.455 2.455 0 0 0-.663-3.382L5.055 3.674a2.396 2.396 0 0 0-3.344.672 2.454 2.454 0 0 0 .663 3.381l22.853 15.456c.398.27.848.403 1.295.41M36.609 15.386c.29.005.588-.044.877-.152 1.249-.467 1.887-1.869 1.426-3.131L35.38 2.44A2.4 2.4 0 0 0 32.284 1a2.446 2.446 0 0 0-1.426 3.13l3.532 9.663a2.41 2.41 0 0 0 2.219 1.592" stroke="#100219" stroke-width="1.6"/><path d="M82.344 14.88a2.417 2.417 0 0 0 2.362-1.778l2.757-9.92c.36-1.296-.387-2.64-1.668-3.005a2.414 2.414 0 0 0-2.973 1.688l-2.758 9.919c-.36 1.296.387 2.641 1.668 3.006.205.058.41.087.612.09"/><path d="M90.856 22.157a2.394 2.394 0 0 0 3.386.401l21.275-16.994a2.456 2.456 0 0 0 .398-3.424 2.394 2.394 0 0 0-3.386-.4L91.255 18.733a2.456 2.456 0 0 0-.399 3.424M97.44 30.407c-1.33.053-2.367 1.186-2.315 2.531.05 1.298 1.095 2.32 2.363 2.342.046 0 .092 0 .139-.002l10.18-.404c1.33-.053 2.368-1.186 2.316-2.53-.052-1.346-1.181-2.395-2.502-2.341l-10.18.404zM116.083 62.936a2.403 2.403 0 0 0 2.049-1.082 2.455 2.455 0 0 0-.664-3.381L93.567 42.309a2.395 2.395 0 0 0-3.345.672 2.455 2.455 0 0 0 .664 3.38l23.901 16.165c.399.27.849.403 1.296.41M86.407 52.343a2.401 2.401 0 0 0-3.096-1.44c-1.249.465-1.887 1.868-1.426 3.13l3.53 9.662a2.411 2.411 0 0 0 2.22 1.593c.291.005.588-.044.877-.152 1.248-.466 1.887-1.869 1.425-3.131l-3.53-9.662zM35.78 52.573l-2.757 9.918c-.36 1.296.388 2.641 1.67 3.006.203.057.408.087.61.09a2.416 2.416 0 0 0 2.362-1.779l2.758-9.918c.36-1.296-.388-2.641-1.669-3.006a2.414 2.414 0 0 0-2.973 1.689M32.073 42.424a2.393 2.393 0 0 0-3.386-.402L5.146 60.828a2.456 2.456 0 0 0-.398 3.424 2.394 2.394 0 0 0 3.386.402l23.541-18.807a2.456 2.456 0 0 0 .398-3.423M12.13 32.016c-1.331.053-2.368 1.185-2.316 2.53.05 1.299 1.095 2.32 2.364 2.343.046 0 .091 0 .138-.002l10.181-.403c1.33-.053 2.367-1.186 2.316-2.53-.052-1.346-1.179-2.397-2.503-2.341l-10.18.403z" stroke="#100219" stroke-width="1.6"/></g></svg>