<svg width="61" height="27" viewBox="0 0 61 27" xmlns="http://www.w3.org/2000/svg" xmlns:xlink="http://www.w3.org/1999/xlink"><title>Soundcloud_icon</title><defs><path id="a" d="M0 .494v7.051h1.439V.495H0z"/><path id="c" d="M14.708 26.357h14.314V.397H.393v25.96h14.315z"/></defs><g fill="none" fill-rule="evenodd"><g transform="translate(.4 15.675)"><mask id="b" fill="#fff"><use xlink:href="#a"/></mask><path d="M.68.494C.553.494.454.591.438.728l-.44 3.32.44 3.264c.016.138.115.233.24.233.121 0 .22-.095.24-.232l.52-3.264L.919.728C.899.59.799.494.679.494" fill="#FFF" mask="url(#b)"/></g><path d="M3.547 14.355c-.02-.143-.123-.241-.25-.241s-.232.102-.25.241l-.59 5.369.59 5.25c.017.14.122.241.25.241.126 0 .229-.1.25-.24l.67-5.251-.67-5.369zM12.84 9.403a.461.461 0 0 0-.454.448l-.47 9.878.47 6.382c.012.25.211.447.453.447.24 0 .44-.198.454-.448v.002l.531-6.383-.53-9.878a.465.465 0 0 0-.455-.448M8.03 12.836a.36.36 0 0 0-.353.345l-.528 6.545.528 6.33a.36.36 0 0 0 .353.345.362.362 0 0 0 .352-.344l.601-6.331-.601-6.546a.362.362 0 0 0-.352-.344M17.727 26.556c.3 0 .545-.24.556-.549l.46-6.276-.46-13.15a.561.561 0 0 0-.555-.55.56.56 0 0 0-.556.552l-.41 13.148.41 6.277a.558.558 0 0 0 .555.548M27.734 26.586a.769.769 0 0 0 .761-.756v.005-.005l.322-6.095-.322-15.187a.769.769 0 0 0-.761-.756.768.768 0 0 0-.762.757l-.286 15.18.286 6.105a.767.767 0 0 0 .762.752M22.692 26.562c.36 0 .65-.287.66-.654v.005l.39-6.18-.39-13.246a.659.659 0 1 0-1.319 0l-.348 13.246.349 6.179c.007.363.296.65.658.65M10.426 26.505a.411.411 0 0 0 .402-.395l.567-6.384-.567-6.074a.409.409 0 0 0-.402-.393c-.217 0-.39.17-.404.396l-.498 6.07.498 6.384a.408.408 0 0 0 .404.396M5.654 26.154c.156 0 .282-.122.3-.292l.636-6.137-.635-6.37c-.019-.17-.145-.294-.301-.294-.158 0-.284.124-.301.293l-.56 6.37.56 6.137c.016.17.142.293.3.293M25.203 6.267a.71.71 0 0 0-.71.705l-.318 12.762.317 6.14a.71.71 0 0 0 1.421-.004v.005l.356-6.14-.356-12.764a.711.711 0 0 0-.71-.704M15.274 26.57c.27 0 .493-.22.506-.5l.495-6.34-.495-12.136a.514.514 0 0 0-.506-.499.512.512 0 0 0-.505.5l-.44 12.134.44 6.344a.51.51 0 0 0 .505.496M20.807 25.971v-.004l.426-6.235-.426-13.593a.612.612 0 0 0-.607-.602.61.61 0 0 0-.607.602l-.379 13.592.38 6.239a.61.61 0 0 0 .606.599c.33 0 .596-.264.607-.6v.002z" fill="#FFF"/><g transform="translate(31.368 .246)"><mask id="d" fill="#fff"><use xlink:href="#c"/></mask><path d="M21.644 11.65a7.387 7.387 0 0 0-2.854.571C18.203 5.595 12.626.397 5.824.397a13.23 13.23 0 0 0-4.72.878c-.557.215-.705.436-.71.865v23.336a.89.89 0 0 0 .796.869c.019.002 20.322.012 20.454.012 4.074 0 7.378-3.291 7.378-7.354 0-4.06-3.303-7.353-7.378-7.353" fill="#FFF" mask="url(#d)"/></g><path d="M30.253 2.366a.82.82 0 0 0-.814.808l-.332 16.563.333 6.011c.006.439.37.801.813.801a.819.819 0 0 0 .812-.807v.007l.362-6.012-.362-16.564a.819.819 0 0 0-.812-.807" fill="#FFF"/></g></svg>