<svg width="51" height="23" viewBox="0 0 51 23" xmlns="http://www.w3.org/2000/svg"><title>Fill 8</title><path d="M43.17 3.371a3.535 3.535 0 0 0-3.544 3.56c0 1.977 1.55 3.58 3.544 3.58s3.766-1.603 3.766-3.58c0-1.956-1.772-3.56-3.766-3.56zm0 8.064c-2.437 0-4.43-2-4.43-4.483 0-2.46 1.993-4.46 4.43-4.46 2.659 0 4.652 2 4.652 4.46 0 2.483-1.993 4.483-4.652 4.483zm-11.298 9.953c-1.55 0-2.658-.66-3.323-1.868.665.33 1.108.55 1.773.77 1.55.659 3.101-.22 3.766-1.627.443-1.362 0-3.23-1.551-3.822l-1.55-.616a6.04 6.04 0 0 1 .885-.088c1.994 0 3.545 1.648 3.545 3.67 0 2.043-1.55 3.581-3.545 3.581zM6.818 4.58a2.955 2.955 0 0 0-3.722 1.648 2.923 2.923 0 0 0 1.529 3.758l1.55.615c-.244.066-.51.088-.797.088C3.34 10.688 1.7 9.062 1.7 7.04c0-2.043 1.64-3.669 3.678-3.669 1.417 0 2.658.769 3.279 1.934l-1.84-.726zM43.17.295c-3.544 0-6.646 2.944-6.646 6.613l-4.208 5.955c-.222-.022-.222-.044-.444-.044-.886 0-1.772.264-2.658.703L10.296 5.964a5.046 5.046 0 0 0-4.918-3.911C2.63 2.053.367 4.294.367 7.04c0 2.725 2.264 4.966 5.01 4.966.954 0 1.817-.242 2.57-.703L27 18.86c.443 2.307 2.437 3.846 4.874 3.846 2.436 0 4.652-1.978 4.873-4.417l6.424-4.658c3.767 0 6.868-2.988 6.868-6.68 0-3.669-3.102-6.657-6.868-6.657z" fill="#FFF" fill-rule="evenodd"/></svg>