<svg width="156" height="72" viewBox="0 0 156 72" xmlns="http://www.w3.org/2000/svg"><title>Group 2</title><g stroke="#100219" stroke-width="1.6" fill="#FEFEFE" fill-rule="evenodd"><path d="M77.29 65.793c-16.921 0-23.823-4.358-23.823-15.042 0-10.1 12.412-28.902 18.682-30.494.016-.004.03-.012.045-.016.285.12.598.187.926.187h2.863c.724 0 1.22.73.953 1.404l-2.675 6.741a2.379 2.379 0 0 0 4.419 1.755l3.543-8.931v20.35a2.378 2.378 0 1 0 4.756 0V24.442c0-.686.833-1.03 1.307-.535 5.989 6.25 12.829 18.888 12.829 26.844 0 10.684-6.903 15.042-23.824 15.042m7.245-57.546l-2.161 6.376a1.541 1.541 0 0 1-1.46 1.047h-6.643a1.54 1.54 0 0 1-1.434-.977L70.33 8.316a1.542 1.542 0 0 1 1.434-2.107h11.311a1.543 1.543 0 0 1 1.46 2.038m2.175 8.396l4.083-12.05a2.379 2.379 0 0 0-2.251-3.141h-22.53A2.378 2.378 0 0 0 63.8 4.7l4.705 11.972c-8.734 4.898-19.793 23.293-19.793 34.078 0 19.799 20.762 19.799 28.578 19.799 7.816 0 28.579 0 28.579-19.799 0-10.863-10.711-29.284-19.159-34.108M124.45 58.679c3.362 1.511 8.05 2.236 12.565 2.236 4.517 0 9.209-.726 12.573-2.24l.005 3.097c-.347.9-4.599 3.166-12.578 3.166-7.98 0-12.231-2.265-12.566-3.078V58.68zm0-7.949c3.362 1.512 8.05 2.237 12.565 2.237 4.517 0 9.21-.726 12.574-2.24l.004 2.265c-.347.901-4.599 3.167-12.578 3.167-7.98 0-12.231-2.266-12.566-3.08V50.73zm0-8.348c3.362 1.512 8.05 2.237 12.565 2.237 4.517 0 9.21-.726 12.573-2.24l.005 2.665c-.347.901-4.599 3.165-12.578 3.165-7.98 0-12.231-2.264-12.566-3.077v-2.75zm23.535-6.713c.94.455.938 1.777-.002 2.232-1.945.943-5.619 1.961-10.968 1.961-5.35 0-9.024-1.018-10.97-1.96a1.236 1.236 0 0 1 0-2.233c.53-.257 1.188-.52 1.973-.765 2.766.69 5.923 1.025 8.997 1.025 3.073 0 6.231-.335 8.997-1.025.784.246 1.443.508 1.973.765zm-23.536-10.324c3.363 1.512 8.052 2.237 12.566 2.237 4.517 0 9.21-.726 12.573-2.24l.005 2.665c-.347.9-4.599 3.165-12.578 3.165-7.98 0-12.231-2.265-12.566-3.077v-2.75zm12.566-8.677c5.35 0 9.025 1.02 10.97 1.962.94.456.94 1.777 0 2.233-1.945.943-5.62 1.962-10.97 1.962-5.352 0-9.027-1.02-10.97-1.962a1.236 1.236 0 0 1 0-2.233c1.944-.943 5.618-1.962 10.97-1.962zm0 53.027c8.342 0 17.32-2.452 17.32-7.835v-7.497c0-.197-.03-.384-.075-.567.037-.235.076-.469.076-.716v-7.497c0-.08-.016-.154-.024-.231.004-.075.024-.144.024-.22v-7.498a2.41 2.41 0 0 0-.044-.435c.012-.139.044-.272.044-.415 0-1.757-.977-3.19-2.559-4.337 1.586-1.15 2.559-2.591 2.559-4.352v-7.498a2.42 2.42 0 0 0-.044-.435c.012-.14.044-.272.044-.415 0-5.383-8.98-7.836-17.321-7.836-8.342 0-17.32 2.453-17.32 7.836 0 .143.03.276.043.415a2.37 2.37 0 0 0-.043.435v7.498c0 1.76.972 3.202 2.557 4.352-1.581 1.147-2.557 2.58-2.557 4.337 0 .143.03.276.043.415a2.36 2.36 0 0 0-.043.435v7.498c0 .076.019.145.023.22-.008.077-.023.151-.023.23v7.498c0 .247.038.48.075.716a2.36 2.36 0 0 0-.075.567v7.497c0 5.383 8.978 7.835 17.32 7.835zM18.321 48.07c-7.98 0-12.232-2.266-12.566-3.08v-2.749c3.363 1.512 8.052 2.237 12.566 2.237 4.518 0 9.21-.726 12.573-2.24l.005 2.665c-.347.901-4.597 3.167-12.578 3.167m-11.2 4.754c.622-.32 1.449-.656 2.473-.961 2.702.645 5.751.963 8.727.963s6.025-.318 8.726-.963c1.025.305 1.851.64 2.474.961.797.411.803 1.579.006 1.993-1.874.974-5.63 2.08-11.206 2.08S8.99 55.79 7.114 54.817c-.796-.414-.79-1.582.007-1.993m11.2 12.42c-7.98 0-12.232-2.265-12.566-3.078v-2.75c3.363 1.512 8.052 2.237 12.566 2.237 4.518 0 9.21-.726 12.573-2.24l.005 2.665c-.347.901-4.598 3.167-12.578 3.167m0-31.68c5.27 0 8.915.989 10.881 1.92.981.463.981 1.853 0 2.318-1.966.93-5.61 1.918-10.88 1.918-5.271 0-8.916-.988-10.883-1.918-.98-.465-.98-1.855 0-2.319 1.967-.93 5.611-1.919 10.882-1.919m0-4.757C9.98 28.808 1 31.26 1 36.644c0 .142.031.276.044.414a2.414 2.414 0 0 0-.044.435v7.498c0 1.796 1.015 3.258 2.656 4.42C2.016 50.569 1 52.026 1 53.818c0 .144.031.276.044.416a2.414 2.414 0 0 0-.044.435v7.497c0 5.384 8.98 7.836 17.321 7.836 8.342 0 17.32-2.452 17.32-7.836v-7.497c0-.15-.017-.294-.044-.435.013-.14.044-.272.044-.416 0-1.792-1.016-3.25-2.655-4.407 1.641-1.162 2.655-2.624 2.655-4.42v-7.498c0-.148-.017-.293-.044-.435.013-.138.044-.272.044-.414 0-5.384-8.978-7.836-17.32-7.836"/></g></svg>