<svg width="31" height="24" viewBox="0 0 31 24" xmlns="http://www.w3.org/2000/svg"><title>Fill 6</title><path d="M30.216 2.922c-1.09.48-2.261.804-3.491.95A6.057 6.057 0 0 0 29.398.536a12.236 12.236 0 0 1-3.86 1.463A6.094 6.094 0 0 0 21.1.095c-3.358 0-6.08 2.7-6.08 6.03 0 .472.054.933.158 1.374a17.307 17.307 0 0 1-12.53-6.3 5.964 5.964 0 0 0-.824 3.031A6.015 6.015 0 0 0 4.53 9.25a6.094 6.094 0 0 1-2.754-.754v.076c0 2.921 2.095 5.358 4.876 5.912a6.135 6.135 0 0 1-2.745.103 6.079 6.079 0 0 0 5.679 4.188 12.262 12.262 0 0 1-7.55 2.581c-.491 0-.975-.028-1.45-.084a17.31 17.31 0 0 0 9.319 2.709c11.182 0 17.296-9.188 17.296-17.156 0-.262-.005-.522-.017-.78a12.302 12.302 0 0 0 3.033-3.122" fill="#FFF" fill-rule="evenodd"/></svg>