<svg width="37" height="35" viewBox="0 0 37 35" xmlns="http://www.w3.org/2000/svg"><title>Fill 7</title><path d="M6.34 0l2.715.003.353 1.373.283 1.039.247 1.002.23 1.039.193.88h.106l.196-.88.215-1.038.267-1.002.268-1.038.374-1.371 2.646.003-2.816 8.302-.007 5.912-2.501-.003.007-5.912L6.34 0zm11.434 5.203c-.568 0-.845.353-.845.986l-.007 5.507c0 .615.321.981.843.982.553 0 .876-.365.876-.98l.007-5.507c0-.633-.321-.987-.874-.988zm.002-1.705c2.135.002 3.208 1.006 3.206 2.995l-.006 4.91c-.003 1.994-1.079 2.983-3.213 2.98-2.103-.002-3.192-.993-3.19-2.988l.006-4.91c.003-1.989 1.094-2.99 3.197-2.987zm9.86 10.745l-.184-.914c-.968.79-1.536 1.064-2.212 1.063-.552 0-1.15-.26-1.427-.595-.291-.366-.367-.762-.366-1.847l.01-8.305 2.35.003-.01 8.252c-.002.528.167.787.612.788.277 0 .553-.106 1.045-.44l.01-8.599 2.35.003-.013 10.593-2.165-.002zm1.939 9.063c-.507 0-.784.243-.784.7l-.002 1.629 1.566.002.002-1.63c0-.456-.306-.7-.782-.701zm-7.83-.01c-.262 0-.507.091-.953.396l-.007 6c.445.29.69.396.951.397.4 0 .568-.243.569-.715l.006-5.346c.001-.518-.167-.73-.567-.731zm-11.14-1.46l2.127.003-.01 7.523c0 .472.169.716.562.717.276 0 .507-.106.945-.395l.01-7.843 2.133.003-.011 9.654-1.95-.002-.183-.838c-.873.715-1.387.973-1.998.973-.512-.001-1.05-.245-1.295-.55-.266-.336-.34-.686-.339-1.676l.01-7.568zm19.002-.083c1.781.002 2.87.902 2.869 2.41l-.004 2.832-3.685-.005-.002 2.102c-.001.716.213 1.005.781 1.006.261 0 .507-.121.63-.289.108-.182.154-.395.155-1.096v-.579l2.12.003v.35c.014.244.014.427.014.533-.002 1.706-1.047 2.633-2.982 2.631-1.827-.002-2.854-.978-2.852-2.73l.005-4.476c.002-1.828.986-2.695 2.951-2.692zm-10.943-3.196l2.134.003-.005 4.202c.83-.73 1.398-1.018 2.043-1.017.476 0 1.013.23 1.259.55.26.335.336.685.335 1.736l-.006 5.345c-.001 1.005-.079 1.355-.34 1.705-.246.32-.784.563-1.306.562-.63 0-1.166-.306-1.994-1.053l-.002.914-2.134-.003.016-12.944zm-15.07-.018l6.624.008-.002 1.69-2.223-.002-.014 11.254-2.272-.003.013-11.254-2.128-.003.002-1.69zm2.911-2.403c-3.477-.004-6.3 2.795-6.304 6.237l-.006 5.451c-.005 3.457 2.81 6.263 6.289 6.267l23.6.028c3.485.004 6.313-2.795 6.318-6.251l.006-5.452c.004-3.442-2.817-6.248-6.303-6.252l-23.6-.028z" fill="#FFF" fill-rule="evenodd"/></svg>