<svg width="21" height="10" viewBox="0 0 21 10" xmlns="http://www.w3.org/2000/svg" xmlns:xlink="http://www.w3.org/1999/xlink"><title>Page 1</title><defs><path id="a" d="M10.467 9.758h10.468V0H0v9.758z"/></defs><g fill="none" fill-rule="evenodd"><mask id="b" fill="#fff"><use xlink:href="#a"/></mask><path d="M0 4.88c-.007.381.634.676 1.405.806l7.2 1.245c.822-.003 1.537-.137 1.935-.826l.278.064c.753.169 1.147.4 1.648.943.587.637.85 1.186 1.04 1.588.214.446.506 1.058 1.217 1.058.71 0 6.212-3.965 6.212-4.879 0-.914-5.502-4.879-6.212-4.879s-1.003.612-1.216 1.058c-.191.402-.454.951-1.04 1.588-.502.543-.896.774-1.649.943-.093.02-.186.042-.278.064-.398-.689-1.113-.823-1.935-.826l-7.2 1.245c-.77.13-1.412.425-1.405.806" fill="#FEFEFE" mask="url(#b)"/></g></svg>