<svg width="136" height="16" viewBox="0 0 136 16" xmlns="http://www.w3.org/2000/svg"><title>Fill 1 Copy 7</title><path d="M135.646 7.828c-.098-1.384-1.45-1.52-2.039-1.58a14.447 14.447 0 0 0-1.134-.052l-.357-.008c-9.944-.264-26.217-.563-39.292-.803l-12.892-.24c-4.17-.082-7.281-1.301-9.89-3.933C69.54.702 68.852 0 67.457 0c-.095 0-.195.004-.33.014-.7.074-1.23.638-1.743 1.185-.13.138-.263.28-.4.414-2.3 2.257-4.982 3.39-8.203 3.467-3.96.095-10.47.192-17.126.292-7.44.111-15.132.226-19.582.342-5.733.15-11.464.313-17.335.501l-.506-.005c-1.436 0-2.186.573-2.23 1.703-.068 1.76 1.691 1.83 2.354 1.855.132.006.261.01.381.022.29.025.581.032.873.032l.916-.007 6.715.011c13.573.017 32.161.039 42.86.567 4.995.246 8.915 1.118 11.81 4.573.575.685 1.198 1.034 1.855 1.034.639-.001 1.232-.327 1.764-.97 2.918-3.529 6.776-4.395 12.053-4.648 10.544-.51 28.848-.536 42.214-.553l8.156-.016c.53 0 1.06-.006 1.597-.066.605-.065 2.214-.239 2.096-1.92" fill="#FFF" fill-rule="evenodd"/></svg>