<svg width="1009" height="32" viewBox="0 0 1009 32" xmlns="http://www.w3.org/2000/svg"><title>DividerB_Desk</title><path d="M576.882 22.34c-1.653.059-3.337.088-5.005.088-13.612 0-27.154-1.89-39.164-5.47a.701.701 0 0 1-.516-.653.701.701 0 0 1 .458-.697c6.83-2.7 13.546-4.517 19.96-5.399 6.417-.92 13.446-1.406 20.326-1.406 5.427 0 10.597.297 15.369.884 4.612.51 10.534 1.999 12.042 4.517.067.112.115.22.163.33-6.165-.024-13.062-.196-21.643-.544-1.365 0-2.414.979-2.44 2.277-.02 1.115.805 2.278 2.527 2.34 7.67-.312 14.028-.482 19.728-.53-.847.589-1.841 1.08-2.749 1.4-4.398 1.561-11.344 2.605-19.056 2.864zM517.4 15.309c-5.005 2.093-9.584 4.444-13.61 6.986a4.988 4.988 0 0 1-4.865.222 555.3 555.3 0 0 0-6.316-3.157c-1.276-.632-2.574-1.273-3.883-1.927 5.005-2.094 9.596-4.447 13.656-7a4.993 4.993 0 0 1 4.864-.212c2.28 1.171 4.743 2.392 7.125 3.573l3.029 1.505v.01zm-43.891 1.823c-6.75 2.656-13.475 4.472-19.993 5.399-6.408.92-13.418 1.404-20.277 1.404-5.423 0-10.59-.297-15.36-.885-4.622-.534-10.171-1.941-11.89-4.287a2.455 2.455 0 0 1-.355-.695c.243-.001.472-.005.718-.005 6.516 0 13.804.174 23.036.546 1.628-.063 2.458-1.23 2.438-2.35-.026-1.292-1.079-2.265-2.537-2.265h-.003c-8.562.347-15.493.52-21.7.54.727-.473 1.612-.91 2.62-1.273 4.412-1.569 11.534-2.657 19.052-2.908 1.555-.051 3.14-.077 4.712-.077 13.725 0 27.378 1.904 39.48 5.505.365.108.506.409.517.653a.703.703 0 0 1-.458.698zm222.273-2.752c-6.045-.118-12.122-.872-17.999-1.599-6.46-.8-13.14-1.628-19.85-1.628-4.643 0-8.94.398-13.034 1.21.056-.255.08-.487.087-.682.048-1.343-.654-2.677-1.744-3.316l-.716-.421-.68.478c-5.64 3.986-17.493 5.934-37.145 6.1-.826-6.012-11.106-7.908-15.154-8.652-3.843-.685-8.218-1.081-13.767-1.25a136.77 136.77 0 0 0-3.46-.044c-6.532 0-12.909.465-20.07 1.462-10.733 1.534-20.746 3.987-29.764 7.293-7.893-3.66-17.299-11.674-17.703-12.02-.93-.778-2.626-.822-3.61-.082-.06.048-6.284 4.807-10.263 7.182a104.363 104.363 0 0 1-9.958 5.424 132.551 132.551 0 0 0-5.63-2.251l-.347-.126c-5.449-1.981-18.21-6.62-35.22-7.318a105.363 105.363 0 0 0-4.443-.092c-14.41 0-29.987 2.801-33.302 10.46-18.743-.254-30.118-2.204-35.608-6.086l-.677-.478-.716.42c-1.093.639-1.795 1.973-1.75 3.317.008.195.031.426.088.68-4.086-.812-8.378-1.208-13.014-1.208-6.7 0-13.378.826-19.836 1.626-5.885.73-11.971 1.483-18.006 1.601L2.136 14.378C.748 14.378 0 15.36 0 16.285c0 .939.75 1.935 2.177 1.935H312.5c6.047.119 12.127.872 18.007 1.6 6.456.8 13.132 1.626 19.833 1.626 4.634 0 8.925-.396 13.01-1.207a3.743 3.743 0 0 0-.09.73c-.034 1.35.679 2.668 1.77 3.28l.71.399.663-.47c5.43-3.839 16.629-5.785 35.01-6.074.733 6.187 11.485 8.073 15.167 8.719 3.822.717 8.2 1.128 13.777 1.294 1.167.03 2.317.043 3.452.043 6.54 0 12.93-.463 20.119-1.46 10.778-1.547 20.78-4.001 29.732-7.293l.247.098c8.787 3.746 17.045 11.355 17.399 11.683.515.46 1.2.712 1.927.712.61 0 1.206-.188 1.71-.551.946-.683 5.759-4.16 7.696-5.41 4.12-2.652 8.342-5.02 12.552-7.04 1.639.706 3.441 1.414 5.66 2.225 5.447 2.025 18.201 6.766 35.577 7.473a104.5 104.5 0 0 0 4.434.093c14.496 0 30.169-2.84 33.33-10.614 19.954.136 31.966 2.082 37.656 6.102l.664.47.71-.4c1.09-.612 1.801-1.93 1.767-3.28a3.833 3.833 0 0 0-.09-.73c4.092.812 8.387 1.208 13.024 1.208 6.7 0 13.372-.826 19.824-1.626 5.887-.728 11.974-1.481 18.011-1.6l310.385.001c1.39 0 2.14-.997 2.14-1.936 0-.924-.75-1.906-2.18-1.906h-310.32z" fill="#FFF" fill-rule="evenodd"/></svg>