<svg width="167" height="264" viewBox="0 0 167 264" xmlns="http://www.w3.org/2000/svg" xmlns:xlink="http://www.w3.org/1999/xlink"><title>g20</title><defs><path id="a" d="M0 480h480V0H0z"/></defs><g transform="matrix(1 0 0 -1 -150 373)" fill="none" fill-rule="evenodd"><mask id="b" fill="#fff"><use xlink:href="#a"/></mask><path d="M113.667 140.333H82.068v11.956h31.028v67.751c0 19.643-10.247 40.992-38.144 40.992-12.241 0-22.49-9.11-22.49-18.503 0-8.254 5.125-11.67 10.818-11.67 6.263 0 11.387 4.838 11.387 10.532 0 3.416-1.992 5.409-1.992 5.409s.284.284 1.138.284c2.562 0 7.687-3.416 7.687-12.525 0-13.095-11.103-19.642-19.928-19.642-8.54 0-20.21 5.123-20.21 19.642 0 15.086 14.233 28.182 35.013 28.182 44.977 0 40.992-38.146 72.021-38.146v-1.138c-5.98-.569-13.664-5.694-13.664-12.526v-58.642c15.943 0 15.943 14.519 15.943 20.782h1.137c.855 0 1.71-4.27 1.71-7.687 0-13.664-5.126-25.05-18.79-25.05V85.676c0-7.117 3.984-12.809 13.664-12.809 9.964 0 15.088 8.823 15.088 17.932.855 0 1.992-3.413 1.992-5.123 0-20.497-23.91-23.91-27.897-37.29-16.511 0-23.912 16.793-23.912 31.882v60.064zM30.544 72.868c2.845 0 19.357.284 19.357 21.633v82.839c0 11.387.284 39 39.284 39v-1.139c-11.102-.853-15.941-13.664-15.941-23.342V59.488c0-47.54-23.059-59.21-41.847-59.21C14.032.277.084 11.947.084 25.895c0 13.95 11.387 23.06 23.057 23.06 11.958 0 22.775-9.11 22.775-23.06 0-13.948-10.25-15.372-11.388-15.372 0 1.141 1.993 2.279 1.993 7.117 0 5.126-5.409 9.68-10.248 9.68-4.838 0-10.248-3.988-10.248-10.248 0-6.549 2.847-14.517 15.942-14.517 12.81 0 33.59 7.968 33.59 35.867 0 27.898-26.758 33.306-35.013 33.306v1.139z" fill="#FFF" transform="translate(150.646 109.614)" mask="url(#b)"/></g></svg>