<svg width="969" height="228" viewBox="0 0 969 228" xmlns="http://www.w3.org/2000/svg" xmlns:xlink="http://www.w3.org/1999/xlink"><title>g14</title><defs><path id="a" d="M0 1122.52h1587.4V0H0z"/></defs><g transform="matrix(1 0 0 -1 -311 688.52)" fill="none" fill-rule="evenodd"><mask id="b" fill="#fff"><use xlink:href="#a"/></mask><g mask="url(#b)"><path d="M1182.083 574.803c0 5.437 12.324 5.98 12.324 18.668 0 17.4-18.868 23.426-35.517 23.426-17.184 0-35.827-6.02-35.827-22.704v-31.088l-.001.003c0-6.27-3.01-7.928-4.213-7.935h-.007V552.633h.007c1.202-.006 4.213-1.665 4.213-7.934l.001.008v-10.14c0-23.528 22.395-30.812 33.119-30.812 13.01 0 30.07 6.696 30.07 19.504 0 15.294-17.086 18.013-17.086 25.806 0 3.807 4.725 3.57 4.725 3.57l-.001 2.537c-4.705 0-11.79-1.756-11.79-8.644 0-8.699 6.562-9.064 6.562-24.287 0-11.364-6.196-15.828-12.48-15.828-8.172 0-13.79 5.86-13.79 21.387L1142.39 593c0 13.207 5.62 20.822 16.061 20.822 11.906 0 16.02-10.62 16.02-21.983 0-9.5-2.12-10.332-2.12-15.768 0-6.888 9.784-8.053 14.456-8.053l.002 1.518v1.148s-4.726-.724-4.726 4.118M428.2 690.216c-19.926 0-60.474-6.954-66.52-40.617-.006.003-.012.01-.02.01-.695-4.875-3.262-8.767-4.464-8.774 0 0-.007-2.06-.007-2.539 1.773 0 3.69-2.884 5.175-9.021.002.004.005.012.008.015 4.517-17.446 17.872-29.3 17.872-53.992 0-23.05-14.2-32.036-27.952-32.151v.004c-17.923 0-26.967 13.9-26.967 27.525 0 17.762 12.675 29.09 23.652 29.09l.001.009c3.456-.121 5.448-1.497 5.448-4.177 0-4.895-6.426-4.02-6.426-4.02s-4.194-15.152 8.452-15.152c6.724 0 11.289 6.184 11.289 12.645 0 10.081-10.505 13.985-18.216 14.013l.003.008c-15.48 0-29.574-7.754-33.828-21.558-1.156-3.2-3.424-7.138-4.523-7.143 0 0-.007-2.06-.007-2.539 1.14 0 2.83-2.24 4.352-7.546 4.376-15.442 20.794-24.023 36.502-24.12v-.004a4.1 4.1 0 0 1 .126.002c.047-.001.095-.004.142-.004v.007c17.752.121 37.196 12.321 37.196 45.867 0 18.849-7.614 36.953-7.614 57.862 0 25.858 21.38 42.568 46.327 42.568 19.816 0 43.119-10.802 43.119-39.05v-4.111c0 .001 0 .003-.002.004 0-6.27-3.012-7.93-4.213-7.935h-.007v-.001l-.001-2.539h.008c1.201-.006 4.213-1.665 4.213-7.934l.002.006v-34.708c0-18.212-9.603-30.498-24.842-30.498-18.11 0-25.697 12.92-25.697 28.688a47.7 47.7 0 0 1-.028 1.594v.162c1.027 13.444 7.712 23.57 21.573 23.653 3.628-.047 5.018-2.115 5.018-4.25 0-4.894-6.503-4.286-6.503-4.286s-2.377-11.615 7.447-11.615c4.894 0 9.168 4.758 9.168 10.379 0 9.425-7.536 12.855-14.471 12.855-10.952 0-18.181-4.516-22.232-11.512v49.994l-2.837-.001c-1.426-13.125-16.348-26.3-16.348-26.3l-.002-70.575c0-6.27-3.012-7.928-4.213-7.934 0 0-.007-2.06-.007-2.54 1.17 0 4.22-1.666 4.22-7.935v.003-32.044c0-19.84-7.604-31.407-20.706-31.407-10.127 0-18.02 6.995-18.02 19.364 0 9.865 6.078 18.892 15.822 18.97 3.595-.067 4.975-2.278 4.975-4.406 0-4.893-6.503-4.459-6.503-4.459s-2.377-11.614 7.448-11.614c4.894 0 8.864 5.006 8.864 10.628 0 9.425-9.081 12.465-14.825 12.465-7.192 0-17.805-3.681-21.977-12.944-1.67-3.287-3.023-5.9-4.983-5.9 0 0-.007-2.059-.007-2.539 1.763 0 2.299-2.285 4.338-7.097 4.02-11.401 17.849-15.136 24.868-15.136 18.634 0 39.894 11.963 39.894 34.8l-.001 59.963c4.725-7.267 12.848-12.064 25.725-12.064 20.982 0 44.235 9.425 44.235 40.305v48.613c0 39.403-39.312 44.62-62.513 44.62M734.992 506.414c-9.143 0-15.504 6.04-15.504 20.057v43.984l.002-.003c-.002.126 0 20.898 0 21.024 0 13.232 4.079 22.348 15.503 22.348 12.137 0 15.332-7.796 15.332-22.348v-28.818c-.144-5.888-3.028-7.48-4.2-7.484h-.007v-.002h-.001v-2.538h.008c1.172-.007 4.056-1.596 4.2-7.486v-18.68c0-13.046-6.19-20.054-15.333-20.054m0 110.485c-16.191 0-34.843-5.607-34.843-22.05l.001-32.265c-.165-5.828-3.03-7.405-4.197-7.41h-.007V552.634h.007c1.168-.007 4.037-1.587 4.199-7.43v-11.002c0-19.331 15.157-30.447 34.84-30.447 19.682 0 34.785 9.183 34.785 30.45v60.646c0 16.441-18.595 22.048-34.785 22.048M903.387 506.414c-9.142 0-15.502 6.04-15.502 20.057v43.984l.001-.003c-.003.126 0 20.898 0 21.024 0 13.232 4.079 22.348 15.503 22.348 12.138 0 15.332-7.796 15.332-22.348v-28.818c-.144-5.888-3.028-7.48-4.2-7.484h-.007v-.002h-.001v-2.538h.008c1.172-.007 4.056-1.596 4.2-7.486v-18.68c0-13.046-6.191-20.054-15.334-20.054m0 110.485c-16.19 0-34.841-5.607-34.841-22.05l.001-31.746-.002.005c0-6.27-3.012-7.928-4.214-7.934h-.006v-.002h-.002v-2.538h.008c1.202-.007 4.214-1.666 4.214-7.935l.002.013v-10.51c0-19.331 15.158-30.447 34.84-30.447 19.683 0 34.786 9.183 34.786 30.45v60.646c0 16.441-18.595 22.048-34.786 22.048M535.752 506.414c-9.142 0-15.504 6.04-15.504 20.057v43.984l.003-.003c-.003.126 0 20.898 0 21.024 0 13.232 4.079 22.348 15.503 22.348 12.138 0 15.332-7.796 15.332-22.348v-28.372l-.002.004c0-6.27-3.012-7.928-4.213-7.934h-.007V552.634h.007c1.201-.007 4.213-1.666 4.213-7.935l.002.01v-18.24c0-13.047-6.19-20.055-15.334-20.055m0 110.485c-16.19 0-34.84-5.607-34.84-22.05v-31.755c0 .005-.002.009-.004.014 0-6.27-3.012-7.928-4.213-7.934h-.007V552.634h.007c1.201-.007 4.213-1.666 4.213-7.935 0 .008.004.023.004.032V534.2c0-19.33 15.158-30.446 34.84-30.446 19.683 0 34.786 9.183 34.786 30.45v60.646c0 16.441-18.595 22.048-34.786 22.048M684.003 531.478v72.51c.009 6.257 3.025 7.908 4.22 7.908l-.002 2.538h-4.218v.002h-19.596v-.002h-4.222l-.001-2.538c1.197 0 4.221-1.655 4.221-7.936l.002.02v-40.876c-.002 0-.002.002-.002.004 0-6.27-3.012-7.928-4.214-7.935h-.007v-2.539l.001-.001h.006c1.202-.005 4.214-1.665 4.214-7.935l.002.01v-9.847c0-25.01 15.692-31.107 31.338-31.107v2.66c-7.973 0-11.742 11.23-11.742 25.064M674.034 626.952c5.636 0 10.206 5.922 10.206 13.228s-4.57 13.229-10.206 13.229c-5.636 0-10.205-5.923-10.205-13.23 0-7.305 4.57-13.227 10.205-13.227M1107.582 531.478v72.514c.01 6.254 3.025 7.904 4.22 7.904l-.002 2.538h-4.218v.002h-19.596v-.002h-4.223v-2.538c1.197 0 4.221-1.655 4.221-7.936l.002.02v-40.876c-.002 0-.002.002-.002.004 0-6.27-3.012-7.928-4.214-7.935h-.007v-2.54h.007c.88-.004 2.73-.905 3.657-3.85-1.107-15.578-8.768-42.369-27.224-42.369-10.513 0-11.057 11.326-11.057 14.196 0 31.899 26.504 38.43 26.504 69.847 0 22.195-19.012 26.44-35.926 26.44-9.377 0-17.87-2.279-24.065-7.293-6.907 5.244-17.557 7.294-27.337 7.294-5.178 0-10.566-.706-15.503-2.148v15.832l-2.837-.001c-1.426-13.125-16.348-26.3-16.348-26.3v-41.175c-.002 0-.002.002-.002.002 0-6.27-3.012-7.928-4.213-7.935h-.008v-2.539h.001v-.001h.007c1.201-.005 4.213-1.665 4.213-7.935v.004-28.173.003c0-6.282-3.024-7.936-4.221-7.936l.001-2.54h27.626v2.54c-1.191 0-4.196 1.645-4.218 7.87v75.02c.002 12.804 4.082 22.339 15.503 22.339 12.137 0 15.332-7.797 15.332-22.348v-28.375l-.003.006c0-6.27-3.012-7.928-4.213-7.935h-.008v-2.539h.001v-.001h.007c1.201-.005 4.213-1.665 4.213-7.935l.003.016v-8.676l-.001-.021v-19.515l-.002.03c0-6.282-3.024-7.936-4.221-7.936l.001-2.54H1027.326v2.54c-1.192 0-4.196 1.645-4.22 7.869v72.219c.002 12.042 3.086 25.138 16.62 25.138 13.744 0 15.46-14.37 15.46-23.07 0-29-15.491-40.376-15.491-62.851 0-15.224 8.076-24.145 20.508-24.145 14.912 0 23.83 12.808 28.195 24.48 2.57-19.486 16.766-24.482 30.926-24.482v2.66c-7.973 0-11.742 11.23-11.742 25.064M1097.613 626.952c5.636 0 10.205 5.922 10.205 13.228s-4.569 13.229-10.205 13.229-10.205-5.923-10.205-13.23c0-7.305 4.569-13.227 10.205-13.227M866.155 495.247c.011-.017.02-.052.027-.084-3.03 5.715-9.315 9.139-16.395 9.139-7.158 0-15.949-3.942-15.949-13.367 0-5.621 3.55-9.993 8.443-9.993 10.312 0 7.87 11.788 7.87 11.788s-6.504-1.267-6.504 3.626c0 2.122 1.638 5.175 6.162 5.286.048-.002.085-.003.137-.003 6.812 0 12.157-5.79 12.157-14.324 0-12.627-10.104-20.988-20.168-20.988-12.686 0-19.038 9.641-19.038 22.204 0 29.332 34.021 55.667 34.021 100.045 0 27.912-26.376 28.322-35.559 28.322-5.977 0-11.912-.612-17.124-2.779v16.463s-1.222-.002-2.837-.002c-1.425-13.125-16.35-26.298-16.35-26.298v-41.175.001c0-6.269-3.011-7.929-4.213-7.934h-.006v-.002h-.002v-2.538h.008c1.202-.007 4.214-1.666 4.214-7.935l-.002-28.23c-.02-6.227-3.025-7.873-4.218-7.873l.001-2.54h27.628v2.54c-1.196 0-4.22 1.654-4.22 7.935l-.003-.017v73.646h.003c0 11.5 3.183 23.663 17.12 23.663 10.633 0 14.77-9.887 14.77-22.453 0-51.715-22.602-70.588-22.602-97.655 0-15.465 11.6-30.377 28.336-30.377 8.439 0 17.816 5.833 22.755 13.365 3.204 4.161 6.57 8.117 8.134 8.117 0 .48-.006 2.54-.006 2.54-2.003 0-5.243 5.734-6.59 7.887M1279.309 520.744c-1.199.007-3.335 2.718-4.223 7.844-5.674 39.955-62.978 51.215-62.978 80.158 0 8.698 5.144 12.698 10.496 12.698 4.841 0 6.117-2.53 6.117-4.69 0-4.895-6.503-5.172-6.503-5.172s-2.377-11.615 7.447-11.615c4.893 0 8.865 5.335 8.865 10.957 0 9.424-8.504 13.45-15.154 13.45-7.878 0-18.018-4.642-18.018-19.787 0-15.037 11.01-26.839 22.939-39.101l-.025.002c3.982-4.361 3.822-6.892 2.825-7.562l-.005-.004 1.402-2.116h.002l.005.004c.98.642 4.856.149 8.503-3.851 9.306-10.77 16.784-22.753 16.784-38.023 0-20.065-8.356-37.693-26.723-37.693-17.923 0-26.967 13.9-26.967 27.525 0 17.762 12.675 29.09 23.652 29.09l.002.009c3.456-.121 5.449-1.497 5.449-4.177 0-4.895-6.556-4.02-6.556-4.02s-3.457-15.152 9.188-15.152c6.724 0 10.681 6.184 10.681 12.645 0 10.081-10.505 13.66-18.216 13.685l.003.008c-15.68 0-29.945-7.717-33.996-21.785-1.379-4.645-3.176-7.568-4.355-7.575 0 0-.006-2.058-.006-2.538 1.12 0 2.72-1.854 4.512-7.132 4.638-15.178 21.014-23.58 36.609-23.58 17.748 0 37.555 12.869 43.01 35.984.002-.004.005-.012.009-.016 1.242 6.142 3.46 8.992 5.232 8.992 0 .478-.007 2.538-.007 2.538M647.278 607.475l.006-.021c-3.345 6.13-10.09 9.443-17.149 9.443-8.084 0-15.993-5.204-15.993-14.628 0-5.623 3.55-9.455 8.442-9.455 10.312 0 7.87 11.787 7.87 11.787s-6.503-1.266-6.503 3.628c0 2.152 1.819 5.566 7.041 5.592 6.56.018 11.59-6.759 11.59-15.276 0-12.626-9.022-20.331-18.326-20.331-11.774 0-18.082 7.94-18.93 21.983v14.044h-.002v28.814l-2.837-.001c-1.425-13.125-16.348-26.3-16.348-26.3l.001-53.657c0 .004-.002.008-.004.012 0-6.27-3.012-7.93-4.213-7.936h-.007v-2.539h.007c1.201-.007 4.213-1.665 4.213-7.935 0 .007.004.02.004.028v-10.446c0-24.974 17.372-30.51 33.002-30.526v-.001l.028.001.04-.001v.001c13.001.023 30.002 6.718 30.002 19.504 0 15.295-17.086 18.014-17.086 25.807 0 3.805 4.725 3.57 4.725 3.57l-.001 2.535c-4.706 0-11.79-1.756-11.79-8.642 0-8.7 6.562-9.064 6.562-24.287 0-11.35-6.18-15.816-12.455-15.827-7.952.023-13.841 6.324-13.841 20.135v54.87c4.353-3.68 10.504-5.893 18.857-5.893 7.661 0 15.307 4.094 20.156 9.946-.007-.01-.013-.028-.021-.038l.093.122c.31.376.6.758.884 1.148 3.648 4.665 7.81 9.104 9.468 9.104 0 .48-.007 2.54-.007 2.54-2.002 0-6.132 6.973-7.478 9.126" fill="#FFF"/></g></g></svg>