<svg width="803" height="381" viewBox="0 0 803 381" xmlns="http://www.w3.org/2000/svg" xmlns:xlink="http://www.w3.org/1999/xlink"><title>g14</title><defs><path id="a" d="M0 793.701h1122.52V0H0z"/></defs><g transform="matrix(1 0 0 -1 -161 576.701)" fill="none" fill-rule="evenodd"><mask id="b" fill="#fff"><use xlink:href="#a"/></mask><g mask="url(#b)"><path d="M828.995 286.117s-6.934 3.183-6.934 16.203v27.22c0 23.993-12.878 27.606-36.98 34.01-24.588 6.531-39.54 8.102-39.54-20.204v-17.025c0-19.43 27.226-33.073 37.792-41.439 10.566-8.364 15.495-15.636 15.495-24.88v-40.376c0-7.484-2.84-15.333-13.748-13.085-11.89 2.45-16.088 7.961-16.088 22.05v33.807c0 24.146-15.024 38.82-30.379 38.82 0 0 6.927-3.468 6.927-15.945v-39.83c0-35.34 19.067-39.753 39.54-44.802 18.661-4.601 36.98-.827 36.98 18.545v34.342c0 17.125-20.59 26.116-31.596 34.921-11.007 8.804-21.473 14.247-21.473 29.656v23.217c0 16.73 6.016 19.387 16.088 16.571 7.61-2.128 13.75-5.283 13.75-22.013v-17.146c0-17.84 10.85-32.617 30.166-32.617M650.21 560.195v-136.72c0-9.246-6.283-11.527-6.283-11.527 22.008-1.905 36.101-4.388 36.101-4.388s-6.572 3.277-6.572 12.853v137.532c0 8.998 6.704 10.655 6.704 10.655s-16.378 3.63-36.64 4.57c0 0 6.69-4.06 6.69-12.975M243 543.782L227.124 383.94s-34.912 136.443-36.058 140.736c-1.95 7.298 3.901 10.975 3.901 10.975-19.848-8.379-33.884-15.701-33.884-15.701s6.824 1.872 10.407-12.515c1.24-4.977 46.693-173.332 48.674-181.917 1.982-8.586-2.64-14.26-2.64-14.26s20.403 7.406 34.087 12.137c0 0-7.74 2.37-6.75 14.916.26 3.292 21.342 206.953 22.358 213.812 1.32 8.916 7.904 13.424 7.904 13.424-26.452-8.597-38.417-13.676-38.417-13.676s7.264.825 6.294-8.09M554.36 565.7V445.87c0-23.449 7.9-32.404 37.545-33.02 27.378-.569 38.484 4.403 38.484 27.296v40.931c0 19.37 7.272 20.693 7.272 20.693-18.987 0-30.538-6.93-30.538-34.68v-30.924c0-13.054-2.6-17.654-15.22-17.276-11.993.362-14.297 7.15-14.297 17.716v118.747c0 10.656 4.135 16.565 14.897 16.419 12.95-.178 14.622-6.367 14.622-17.764v-6.31c0-19.745 10.393-31.98 30.534-31.98 0 0-7.27 2.435-7.27 16.204v20.864c0 18.435-15.338 23.718-38.192 24.526-41.715 0-44.576-.386-44.576-.386s6.738-2.2 6.738-11.226M411.148 308.352s-6.46 2.694-6.46 16.202v25.596c0 16.47-10.484 24.644-38.98 18.879-23.015-5.132-46.948-14.117-46.948-14.117s6.966.082 6.966-8.75v-118.5c0-25.976 6.714-35.585 38.708-27.168 26.484 6.967 40.254 12.19 40.254 35.083v56.293c0 6.163 5.845 7.842 5.845 8.804 0 0-16.203-2.394-38.576-7.218-17.481-3.771-17.06-10.696-17.06-10.696s26.588 15.7 26.588-22.286v-28.278c0-17.614-6.055-23.672-17.05-25.66-11.382-2.06-15.46 1.053-15.46 16.392 0 7.8.085 110.594-.002 117.76-.165 13.772 4.847 20.06 16.735 22.482 11.166 2.275 15.78-1.132 15.78-16.652v-13.512c0-18.768 12.6-24.654 29.66-24.654M329.462 412.871c0-21.24-2.05-26.27-15.216-30.488-11.048-3.54-14.354-.578-14.354 23.855v109.915c0 12.328 4.4 19.632 14.355 22.636 10.076 3.04 15.215 1.564 15.215-14.064V412.87zm23.484 14.747v98.537c0 24.764-21.09 23.179-38.699 18.522-22.71-6.008-37.815-12.824-37.815-35.608V399.705c0-26.91 16.002-30.908 37.815-23.283 24.701 8.633 38.699 7.39 38.699 51.196zM838.061 524.675c0-2.459-.245-97.4-.245-117.543 0-16.683-3.135-25.204-15.872-22.335-10.507 2.368-13.787 11.178-13.787 26.247 0 8.647.245 115.236.245 120.628 0 8.75 6.29 11.145 6.29 11.145s-17.5 4.788-36.652 8.586c0 0 7.081-3.57 7.081-13.94 0-2.283-.1-82.632-.1-110.698 0-36.241 9.475-41.429 38.299-48.292 22.504-5.36 37.82-11.86 37.82 33.002 0 33.018.242 105.197.242 106.225 0 9.245 6.802 11.472 6.802 11.472s-15.647 5.107-35.992 10.323c0 0 5.869-4.419 5.869-14.82M484.596 423.764c.01 3.302-.006 116.276-.006 123.14 0 15.628 3.292 21.052 15.16 22.116 12.008 1.076 14.777-2.085 14.777-20.356 0-1.72-.024-24.474-.05-50.054-19.595 0-26.511-11.766-26.511-11.766s26.512 15.986 26.512-24.782v-36.434c0-8.914-6.15-12.768-6.15-12.768s13.911 1.667 36.651 1.872c0 0-7.276 2.476-7.276 11.558v123.805c0 26.416-14.903 26.721-37.952 24.985-19.252-1.45-38.355-1.872-38.355-25.314 0-4.138-.118-116.84-.118-129.718 0-8.749-6.607-13.226-6.607-13.226s11.597 2.877 37.036 4.584c0 0-7.141 2.045-7.11 12.358M498.068 239.605V360.71c0 28.163-16.61 27.215-38.241 24.16-22.112-3.121-38.354-4.396-38.354-27.73 0-4.232-.118-115.603-.118-128.482 0-8.364-6.423-13.752-6.423-13.752 15.959 3.108 35.22 5.43 36.32 5.43 0 0-6.613 3.137-6.613 11.722l-.008 125.54c0 16.73 2.989 19.278 15.196 20.81 11.066 1.389 14.848-1.438 14.848-19.488v-50.823c-19.171 0-26.4-11.765-26.4-11.765s26.368 16.054 26.4-24.218v-37.498c0-8.476-6.814-12.627-6.814-12.627s16.638 2.345 36.45 3.665c0 0-6.243 2.786-6.243 13.95M924.804 445.884c-11.007 8.805-20.739 14.483-20.739 29.89v67.485c0 5.846 5.31 11.556 15.89 8.505 7.2-2.075 13.214-5.941 13.214-17.388v-58.437c0-18.427 11.4-34.018 30.385-34.018 0 0-7.096 3.422-7.096 15.807v63.899c0 20.092-7.734 27.048-36.502 35.438-31.034 9.05-39.178 1.526-39.178-15.205v-59.435c0-18.564 26.328-32.474 36.895-40.838 10.567-8.366 15.495-16.835 15.495-26.08V335.78c0-10.338-5.1-15.578-16.112-12.186-9.835 3.029-12.99 10.213-12.99 20.552v66.633c0 27.14-16.456 39.883-30.82 39.883 0 0 7.532-2.971 7.532-16.298v-70.81c0-30.708 10.835-38.007 34.958-45.694 18.312-5.836 40.724-6.485 40.724 16.748v77.375c0 17.164-20.65 25.095-31.656 33.9M714.998 534.303c0 15.398 5.99 22.454 16.953 20.332 10.082-1.951 12.551-7.086 12.551-27.25v-97.617c0-19.725-2.52-28.03-15.141-25.817-12.439 2.18-14.363 9.68-14.363 26.542v103.81zm13.875-136.242c23.126-4.208 39.09-8.577 39.09 35.228v94.074c0 27.398-18.485 30.454-37.018 33.481-17.668 2.887-39.43 2.637-39.43-22.127v-99.57c0-29.939 9.975-36.102 37.358-41.086zM704.288 269.038l-.001-26.941c0-12.884-2.597-19.603-15.284-18.174-11.887 1.34-14.717 8.528-14.717 20.36v118.542c0 10.262 4.492 14.168 16.816 11.84 12.146-2.295 14.65-13.01 14.65-25.746v-14.273c0-35.868-26.461-22.285-26.461-22.285s-.44-7.01 17.06-10.695c14.808-3.12 32.641-.996 32.641 27.35l.002 19.765c0 24.585-14.463 28.38-37.895 32.122-17.977 2.871-45.441 5.908-46.457 5.908 0 0 6.397-3.649 6.397-12.564v-117.92c0-25.976 7.54-34.112 37.964-38.445 27.11-3.863 38.528 4.403 38.528 27.296v36.94c0 19.372 6.273 20.33 6.273 20.33-13.052 0-29.516-3.549-29.516-33.41M632.6 244.28l.002 136.88c0 4.173 6.179 6.284 6.179 6.284s-18.816 2.282-29.718 2.652l-23.208-82.488v71.533c0 8.916 7.276 11.528 7.112 11.693-9.868.507-17.418.984-30.358.606l-25.146-85.132v73.596c0 8.75 6.14 11.308 6.14 11.308-17.16-.33-36.404-1.82-36.404-1.82s7.018-2.352 7.018-11.103V237.796c0-8.696-6.45-11.798-6.45-11.798s18.006 1.618 36.98 1.968c0 0-.56.226-1.362.723-16.158 14.95 9.608 106.617 19.224 138.563V239.874c0-8.916-6.128-11.577-6.128-11.577 9.145.53 26.573.556 37.304-.732 0 0-.662.301-1.592.925.15-.009.293-.025.444-.028-17.596 12.88 7.16 104.654 16.417 136.911-.019-37.504-.052-105.824-.052-112.641 0-25.095 8.137-33.02 35.255-33.02 0 0-11.656 2.641-11.656 24.568M407.516 557.775c10.859 1.765 15.759-1.864 15.759-17.054v-23.626c-.023-30.38-19.436-41.214-30.57-45.956v64.96c0 13.868 1.264 19.474 14.811 21.676m15.76-115.034v-22.81c0-19.384 9.708-24.655 29.63-24.655 0 0-6.28 3.51-6.28 16.203l-.002 36.892c0 22.732-11.668 30.68-23.927 31.332 12.487 9.182 23.378 21.59 23.378 36.946l-.002 27.094c0 22.452-14.192 23.884-37.024 20.03-16.833-2.84-33.9-6.933-46.33-9.732 0 0 6.74-1.937 6.74-10.768V404.397c0-8.173-6.031-12.772-6.031-12.772s21.573 5.695 35.936 7.399c0 0-6.659 3.056-6.659 11.23v52.818c.564.293 9.75 6.505 16.446 6.505 6.697 0 14.125-1.23 14.125-26.836" fill="#FFF"/></g></g></svg>